solid OpenSCAD_Model
  facet normal 1 -0 0
    outer loop
      vertex 25.25 -1.25 4
      vertex 25.25 1.25 -4
      vertex 25.25 1.25 4
    endloop
  endfacet
  facet normal 1 0 0
    outer loop
      vertex 25.25 1.25 -4
      vertex 25.25 -1.25 4
      vertex 25.25 -1.25 -4
    endloop
  endfacet
  facet normal -0 0 1
    outer loop
      vertex 6.47542 23.9744 4
      vertex 8.85307 23.2019 4
      vertex 6.61386 24.4004 4
    endloop
  endfacet
  facet normal 0 0 1
    outer loop
      vertex 6.61386 24.4004 4
      vertex 8.85307 23.2019 4
      vertex 8.9915 23.6279 4
    endloop
  endfacet
  facet normal -0 0 1
    outer loop
      vertex 13.567 20.8 4
      vertex 15.5895 19.3305 4
      vertex 13.8303 21.1624 4
    endloop
  endfacet
  facet normal 0 0 1
    outer loop
      vertex 13.8303 21.1624 4
      vertex 15.5895 19.3305 4
      vertex 15.8528 19.6929 4
    endloop
  endfacet
  facet normal -0 0 1
    outer loop
      vertex 19.3305 15.5895 4
      vertex 20.8 13.567 4
      vertex 19.6929 15.8528 4
    endloop
  endfacet
  facet normal 0 0 1
    outer loop
      vertex 19.6929 15.8528 4
      vertex 20.8 13.567 4
      vertex 21.1624 13.8303 4
    endloop
  endfacet
  facet normal -0 0 1
    outer loop
      vertex 23.2019 8.85307 4
      vertex 23.9744 6.47542 4
      vertex 23.6279 8.9915 4
    endloop
  endfacet
  facet normal 0 0 1
    outer loop
      vertex 23.6279 8.9915 4
      vertex 23.9744 6.47542 4
      vertex 24.4004 6.61386 4
    endloop
  endfacet
  facet normal -0 0 1
    outer loop
      vertex 24.802 1.25 4
      vertex 25.25 -1.25 4
      vertex 25.25 1.25 4
    endloop
  endfacet
  facet normal 0 0 1
    outer loop
      vertex 24.802 1.25 4
      vertex 24.802 -1.25 4
      vertex 25.25 -1.25 4
    endloop
  endfacet
  facet normal 0 0 1
    outer loop
      vertex 23.9744 6.47542 4
      vertex 24.802 -1.25 4
      vertex 24.802 1.25 4
    endloop
  endfacet
  facet normal 0 0 1
    outer loop
      vertex 24.802 -1.25 4
      vertex 23.9744 6.47542 4
      vertex 23.9744 -6.47542 4
    endloop
  endfacet
  facet normal 0 0 1
    outer loop
      vertex 23.9744 -6.47542 4
      vertex 23.6279 -8.9915 4
      vertex 24.4004 -6.61386 4
    endloop
  endfacet
  facet normal 0 0 1
    outer loop
      vertex 23.9744 6.47542 4
      vertex 23.2019 8.85307 4
      vertex 23.9744 -6.47542 4
    endloop
  endfacet
  facet normal 0 0 1
    outer loop
      vertex 23.2019 -8.85307 4
      vertex 23.9744 -6.47542 4
      vertex 23.2019 8.85307 4
    endloop
  endfacet
  facet normal 0 0 1
    outer loop
      vertex 23.9744 -6.47542 4
      vertex 23.2019 -8.85307 4
      vertex 23.6279 -8.9915 4
    endloop
  endfacet
  facet normal 0 0 1
    outer loop
      vertex 20.8 13.567 4
      vertex 23.2019 -8.85307 4
      vertex 23.2019 8.85307 4
    endloop
  endfacet
  facet normal 0 0 1
    outer loop
      vertex 23.2019 -8.85307 4
      vertex 20.8 13.567 4
      vertex 20.8 -13.567 4
    endloop
  endfacet
  facet normal 0 0 1
    outer loop
      vertex 20.8 -13.567 4
      vertex 19.6929 -15.8528 4
      vertex 21.1624 -13.8303 4
    endloop
  endfacet
  facet normal 0 0 1
    outer loop
      vertex 20.8 13.567 4
      vertex 19.3305 15.5895 4
      vertex 20.8 -13.567 4
    endloop
  endfacet
  facet normal 0 0 1
    outer loop
      vertex 19.3305 -15.5895 4
      vertex 20.8 -13.567 4
      vertex 19.3305 15.5895 4
    endloop
  endfacet
  facet normal 0 0 1
    outer loop
      vertex 20.8 -13.567 4
      vertex 19.3305 -15.5895 4
      vertex 19.6929 -15.8528 4
    endloop
  endfacet
  facet normal 0 0 1
    outer loop
      vertex 15.5895 19.3305 4
      vertex 19.3305 -15.5895 4
      vertex 19.3305 15.5895 4
    endloop
  endfacet
  facet normal 0 0 1
    outer loop
      vertex 19.3305 -15.5895 4
      vertex 15.5895 19.3305 4
      vertex 15.5895 -19.3305 4
    endloop
  endfacet
  facet normal 0 0 1
    outer loop
      vertex 15.5895 -19.3305 4
      vertex 13.8303 -21.1624 4
      vertex 15.8528 -19.6929 4
    endloop
  endfacet
  facet normal 0 0 1
    outer loop
      vertex 15.5895 19.3305 4
      vertex 13.567 20.8 4
      vertex 15.5895 -19.3305 4
    endloop
  endfacet
  facet normal 0 0 1
    outer loop
      vertex 13.567 -20.8 4
      vertex 15.5895 -19.3305 4
      vertex 13.567 20.8 4
    endloop
  endfacet
  facet normal 0 0 1
    outer loop
      vertex 15.5895 -19.3305 4
      vertex 13.567 -20.8 4
      vertex 13.8303 -21.1624 4
    endloop
  endfacet
  facet normal 0 0 1
    outer loop
      vertex 8.85307 23.2019 4
      vertex 13.567 -20.8 4
      vertex 13.567 20.8 4
    endloop
  endfacet
  facet normal 0 0 1
    outer loop
      vertex 13.567 -20.8 4
      vertex 8.85307 23.2019 4
      vertex 8.85307 -23.2019 4
    endloop
  endfacet
  facet normal 0 0 1
    outer loop
      vertex 8.85307 -23.2019 4
      vertex 6.61386 -24.4004 4
      vertex 8.9915 -23.6279 4
    endloop
  endfacet
  facet normal 0 0 1
    outer loop
      vertex 8.85307 23.2019 4
      vertex 4 0 4
      vertex 8.85307 -23.2019 4
    endloop
  endfacet
  facet normal 0 0 1
    outer loop
      vertex 1.16114 3.82776 4
      vertex 8.85307 23.2019 4
      vertex 6.47542 23.9744 4
    endloop
  endfacet
  facet normal -0 0 1
    outer loop
      vertex 3.98074 -0.392068 4
      vertex 8.85307 -23.2019 4
      vertex 4 0 4
    endloop
  endfacet
  facet normal -0 0 1
    outer loop
      vertex 3.92314 -0.780361 4
      vertex 8.85307 -23.2019 4
      vertex 3.98074 -0.392068 4
    endloop
  endfacet
  facet normal 0 0 1
    outer loop
      vertex 8.85307 23.2019 4
      vertex 3.98074 0.392068 4
      vertex 4 0 4
    endloop
  endfacet
  facet normal 0 0 1
    outer loop
      vertex 8.85307 23.2019 4
      vertex 3.92314 0.780361 4
      vertex 3.98074 0.392068 4
    endloop
  endfacet
  facet normal 0 0 1
    outer loop
      vertex 8.85307 23.2019 4
      vertex 3.82776 1.16114 4
      vertex 3.92314 0.780361 4
    endloop
  endfacet
  facet normal 0 0 1
    outer loop
      vertex 8.85307 23.2019 4
      vertex 3.69552 1.53073 4
      vertex 3.82776 1.16114 4
    endloop
  endfacet
  facet normal 0 0 1
    outer loop
      vertex 8.85307 23.2019 4
      vertex 3.52768 1.88559 4
      vertex 3.69552 1.53073 4
    endloop
  endfacet
  facet normal 0 0 1
    outer loop
      vertex 8.85307 23.2019 4
      vertex 3.32588 2.22228 4
      vertex 3.52768 1.88559 4
    endloop
  endfacet
  facet normal 0 0 1
    outer loop
      vertex 8.85307 23.2019 4
      vertex 3.09204 2.53757 4
      vertex 3.32588 2.22228 4
    endloop
  endfacet
  facet normal 0 0 1
    outer loop
      vertex 8.85307 23.2019 4
      vertex 2.82843 2.82843 4
      vertex 3.09204 2.53757 4
    endloop
  endfacet
  facet normal 0 0 1
    outer loop
      vertex 8.85307 23.2019 4
      vertex 2.53757 3.09204 4
      vertex 2.82843 2.82843 4
    endloop
  endfacet
  facet normal 0 0 1
    outer loop
      vertex 8.85307 23.2019 4
      vertex 2.22228 3.32588 4
      vertex 2.53757 3.09204 4
    endloop
  endfacet
  facet normal 0 0 1
    outer loop
      vertex 8.85307 23.2019 4
      vertex 1.88559 3.52768 4
      vertex 2.22228 3.32588 4
    endloop
  endfacet
  facet normal 0 0 1
    outer loop
      vertex 8.85307 23.2019 4
      vertex 1.53073 3.69552 4
      vertex 1.88559 3.52768 4
    endloop
  endfacet
  facet normal 0 0 1
    outer loop
      vertex 0.780361 3.92314 4
      vertex 6.47542 23.9744 4
      vertex 1.25 24.802 4
    endloop
  endfacet
  facet normal 0 0 1
    outer loop
      vertex 8.85307 23.2019 4
      vertex 1.16114 3.82776 4
      vertex 1.53073 3.69552 4
    endloop
  endfacet
  facet normal 0 0 1
    outer loop
      vertex -4 0 4
      vertex -24.802 -1.25 4
      vertex -3.98074 -0.392068 4
    endloop
  endfacet
  facet normal 0 0 1
    outer loop
      vertex -3.98074 -0.392068 4
      vertex -24.802 -1.25 4
      vertex -23.9744 -6.47542 4
    endloop
  endfacet
  facet normal -0 0 1
    outer loop
      vertex -25.25 1.25 4
      vertex -24.802 -1.25 4
      vertex -24.802 1.25 4
    endloop
  endfacet
  facet normal 0 0 1
    outer loop
      vertex -24.802 -1.25 4
      vertex -25.25 1.25 4
      vertex -25.25 -1.25 4
    endloop
  endfacet
  facet normal 0 0 1
    outer loop
      vertex -3.98074 0.392068 4
      vertex -24.802 1.25 4
      vertex -4 0 4
    endloop
  endfacet
  facet normal 0 0 1
    outer loop
      vertex -3.98074 -0.392068 4
      vertex -23.2019 -8.85307 4
      vertex -20.8 -13.567 4
    endloop
  endfacet
  facet normal 0 0 1
    outer loop
      vertex -23.9744 6.47542 4
      vertex -23.2019 8.85307 4
      vertex -23.6279 8.9915 4
    endloop
  endfacet
  facet normal 0 0 1
    outer loop
      vertex -24.802 -1.25 4
      vertex -4 0 4
      vertex -24.802 1.25 4
    endloop
  endfacet
  facet normal 0 0 1
    outer loop
      vertex -3.98074 -0.392068 4
      vertex -23.9744 -6.47542 4
      vertex -23.2019 -8.85307 4
    endloop
  endfacet
  facet normal 0 -0 1
    outer loop
      vertex -23.9744 6.47542 4
      vertex -23.6279 8.9915 4
      vertex -24.4004 6.61386 4
    endloop
  endfacet
  facet normal -0 0 1
    outer loop
      vertex -24.802 1.25 4
      vertex -3.92314 0.780361 4
      vertex -23.9744 6.47542 4
    endloop
  endfacet
  facet normal 0 0 1
    outer loop
      vertex -3.98074 -0.392068 4
      vertex -19.3305 -15.5895 4
      vertex -15.5895 -19.3305 4
    endloop
  endfacet
  facet normal 0 0 1
    outer loop
      vertex -20.8 13.567 4
      vertex -19.3305 15.5895 4
      vertex -19.6929 15.8528 4
    endloop
  endfacet
  facet normal 0 0 1
    outer loop
      vertex -3.92314 0.780361 4
      vertex -24.802 1.25 4
      vertex -3.98074 0.392068 4
    endloop
  endfacet
  facet normal 0 0 1
    outer loop
      vertex -3.98074 -0.392068 4
      vertex -20.8 -13.567 4
      vertex -19.3305 -15.5895 4
    endloop
  endfacet
  facet normal 0 -0 1
    outer loop
      vertex -20.8 13.567 4
      vertex -19.6929 15.8528 4
      vertex -21.1624 13.8303 4
    endloop
  endfacet
  facet normal -0 0 1
    outer loop
      vertex -23.9744 6.47542 4
      vertex -3.82776 1.16114 4
      vertex -23.2019 8.85307 4
    endloop
  endfacet
  facet normal 0 0 1
    outer loop
      vertex -3.98074 -0.392068 4
      vertex -13.567 -20.8 4
      vertex -8.85307 -23.2019 4
    endloop
  endfacet
  facet normal 0 0 1
    outer loop
      vertex -15.5895 19.3305 4
      vertex -13.567 20.8 4
      vertex -13.8303 21.1624 4
    endloop
  endfacet
  facet normal 0 0 1
    outer loop
      vertex -3.82776 1.16114 4
      vertex -23.9744 6.47542 4
      vertex -3.92314 0.780361 4
    endloop
  endfacet
  facet normal 0 0 1
    outer loop
      vertex -3.98074 -0.392068 4
      vertex -15.5895 -19.3305 4
      vertex -13.567 -20.8 4
    endloop
  endfacet
  facet normal 0 -0 1
    outer loop
      vertex -15.5895 19.3305 4
      vertex -13.8303 21.1624 4
      vertex -15.8528 19.6929 4
    endloop
  endfacet
  facet normal 0 0 1
    outer loop
      vertex -6.47542 -23.9744 4
      vertex -8.85307 -23.2019 4
      vertex -6.61386 -24.4004 4
    endloop
  endfacet
  facet normal 0 0 1
    outer loop
      vertex -6.61386 -24.4004 4
      vertex -8.85307 -23.2019 4
      vertex -8.9915 -23.6279 4
    endloop
  endfacet
  facet normal 0 0 1
    outer loop
      vertex -13.567 -20.8 4
      vertex -15.5895 -19.3305 4
      vertex -13.8303 -21.1624 4
    endloop
  endfacet
  facet normal 0 0 1
    outer loop
      vertex -13.8303 -21.1624 4
      vertex -15.5895 -19.3305 4
      vertex -15.8528 -19.6929 4
    endloop
  endfacet
  facet normal 0 0 1
    outer loop
      vertex -19.3305 -15.5895 4
      vertex -20.8 -13.567 4
      vertex -19.6929 -15.8528 4
    endloop
  endfacet
  facet normal 0 0 1
    outer loop
      vertex -19.6929 -15.8528 4
      vertex -20.8 -13.567 4
      vertex -21.1624 -13.8303 4
    endloop
  endfacet
  facet normal 0 0 1
    outer loop
      vertex -23.2019 -8.85307 4
      vertex -23.9744 -6.47542 4
      vertex -23.6279 -8.9915 4
    endloop
  endfacet
  facet normal 0 0 1
    outer loop
      vertex -23.6279 -8.9915 4
      vertex -23.9744 -6.47542 4
      vertex -24.4004 -6.61386 4
    endloop
  endfacet
  facet normal 0 0 1
    outer loop
      vertex -8.85307 -23.2019 4
      vertex -1.16114 -3.82776 4
      vertex -1.53073 -3.69552 4
    endloop
  endfacet
  facet normal 0 0 1
    outer loop
      vertex -8.85307 -23.2019 4
      vertex -1.53073 -3.69552 4
      vertex -1.88559 -3.52768 4
    endloop
  endfacet
  facet normal 0 0 1
    outer loop
      vertex -8.85307 -23.2019 4
      vertex -1.88559 -3.52768 4
      vertex -2.22228 -3.32588 4
    endloop
  endfacet
  facet normal 0 0 1
    outer loop
      vertex -8.85307 -23.2019 4
      vertex -2.22228 -3.32588 4
      vertex -2.53757 -3.09204 4
    endloop
  endfacet
  facet normal 0 0 1
    outer loop
      vertex -8.85307 -23.2019 4
      vertex -2.53757 -3.09204 4
      vertex -2.82843 -2.82843 4
    endloop
  endfacet
  facet normal 0 0 1
    outer loop
      vertex -8.85307 -23.2019 4
      vertex -2.82843 -2.82843 4
      vertex -3.09204 -2.53757 4
    endloop
  endfacet
  facet normal 0 0 1
    outer loop
      vertex -8.85307 -23.2019 4
      vertex -3.09204 -2.53757 4
      vertex -3.32588 -2.22228 4
    endloop
  endfacet
  facet normal 0 0 1
    outer loop
      vertex -8.85307 -23.2019 4
      vertex -3.32588 -2.22228 4
      vertex -3.52768 -1.88559 4
    endloop
  endfacet
  facet normal 0 0 1
    outer loop
      vertex -8.85307 -23.2019 4
      vertex -3.52768 -1.88559 4
      vertex -3.69552 -1.53073 4
    endloop
  endfacet
  facet normal 0 0 1
    outer loop
      vertex -8.85307 -23.2019 4
      vertex -3.69552 -1.53073 4
      vertex -3.82776 -1.16114 4
    endloop
  endfacet
  facet normal 0 0 1
    outer loop
      vertex -8.85307 -23.2019 4
      vertex -3.82776 -1.16114 4
      vertex -3.92314 -0.780361 4
    endloop
  endfacet
  facet normal 0 0 1
    outer loop
      vertex -8.85307 -23.2019 4
      vertex -3.92314 -0.780361 4
      vertex -3.98074 -0.392068 4
    endloop
  endfacet
  facet normal -0 0 1
    outer loop
      vertex -23.2019 8.85307 4
      vertex -3.52768 1.88559 4
      vertex -20.8 13.567 4
    endloop
  endfacet
  facet normal 0 0 1
    outer loop
      vertex -1.16114 -3.82776 4
      vertex -6.47542 -23.9744 4
      vertex -1.25 -24.802 4
    endloop
  endfacet
  facet normal 0 0 1
    outer loop
      vertex -3.52768 1.88559 4
      vertex -23.2019 8.85307 4
      vertex -3.69552 1.53073 4
    endloop
  endfacet
  facet normal 0 0 1
    outer loop
      vertex -8.85307 23.2019 4
      vertex -6.47542 23.9744 4
      vertex -6.61386 24.4004 4
    endloop
  endfacet
  facet normal 0 0 1
    outer loop
      vertex -3.69552 1.53073 4
      vertex -23.2019 8.85307 4
      vertex -3.82776 1.16114 4
    endloop
  endfacet
  facet normal 0 0 1
    outer loop
      vertex -1.16114 -3.82776 4
      vertex -8.85307 -23.2019 4
      vertex -6.47542 -23.9744 4
    endloop
  endfacet
  facet normal 0 -0 1
    outer loop
      vertex -8.85307 23.2019 4
      vertex -6.61386 24.4004 4
      vertex -8.9915 23.6279 4
    endloop
  endfacet
  facet normal 0 0 1
    outer loop
      vertex -1.25 24.802 4
      vertex 1.25 24.802 4
      vertex 1.25 25.25 4
    endloop
  endfacet
  facet normal 0 0 1
    outer loop
      vertex 6.47542 23.9744 4
      vertex 0.780361 3.92314 4
      vertex 1.16114 3.82776 4
    endloop
  endfacet
  facet normal 0 0 1
    outer loop
      vertex 1.25 24.802 4
      vertex 0.392068 3.98074 4
      vertex 0.780361 3.92314 4
    endloop
  endfacet
  facet normal 0 -0 1
    outer loop
      vertex 0 4 4
      vertex 1.25 24.802 4
      vertex -1.25 24.802 4
    endloop
  endfacet
  facet normal 0 0 1
    outer loop
      vertex 1.25 24.802 4
      vertex 0 4 4
      vertex 0.392068 3.98074 4
    endloop
  endfacet
  facet normal 0 0 1
    outer loop
      vertex 0 4 4
      vertex -1.25 24.802 4
      vertex -0.392068 3.98074 4
    endloop
  endfacet
  facet normal 0 0 1
    outer loop
      vertex -0.392068 3.98074 4
      vertex -1.25 24.802 4
      vertex -0.780361 3.92314 4
    endloop
  endfacet
  facet normal 0 0 1
    outer loop
      vertex -1.25 24.802 4
      vertex 1.25 25.25 4
      vertex -1.25 25.25 4
    endloop
  endfacet
  facet normal -0 0 1
    outer loop
      vertex -6.47542 23.9744 4
      vertex -0.780361 3.92314 4
      vertex -1.25 24.802 4
    endloop
  endfacet
  facet normal 0 0 1
    outer loop
      vertex -0.780361 3.92314 4
      vertex -6.47542 23.9744 4
      vertex -1.16114 3.82776 4
    endloop
  endfacet
  facet normal -0 0 1
    outer loop
      vertex -8.85307 23.2019 4
      vertex -1.16114 3.82776 4
      vertex -6.47542 23.9744 4
    endloop
  endfacet
  facet normal 0 0 1
    outer loop
      vertex -1.16114 3.82776 4
      vertex -8.85307 23.2019 4
      vertex -1.53073 3.69552 4
    endloop
  endfacet
  facet normal 0 0 1
    outer loop
      vertex -1.53073 3.69552 4
      vertex -8.85307 23.2019 4
      vertex -1.88559 3.52768 4
    endloop
  endfacet
  facet normal -0 0 1
    outer loop
      vertex -13.567 20.8 4
      vertex -1.88559 3.52768 4
      vertex -8.85307 23.2019 4
    endloop
  endfacet
  facet normal 0 0 1
    outer loop
      vertex -1.88559 3.52768 4
      vertex -13.567 20.8 4
      vertex -2.22228 3.32588 4
    endloop
  endfacet
  facet normal -0 0 1
    outer loop
      vertex -15.5895 19.3305 4
      vertex -2.22228 3.32588 4
      vertex -13.567 20.8 4
    endloop
  endfacet
  facet normal 0 0 1
    outer loop
      vertex -2.22228 3.32588 4
      vertex -15.5895 19.3305 4
      vertex -2.53757 3.09204 4
    endloop
  endfacet
  facet normal 0 0 1
    outer loop
      vertex -2.53757 3.09204 4
      vertex -15.5895 19.3305 4
      vertex -2.82843 2.82843 4
    endloop
  endfacet
  facet normal -0 0 1
    outer loop
      vertex -19.3305 15.5895 4
      vertex -2.82843 2.82843 4
      vertex -15.5895 19.3305 4
    endloop
  endfacet
  facet normal 0 0 1
    outer loop
      vertex -2.82843 2.82843 4
      vertex -19.3305 15.5895 4
      vertex -3.09204 2.53757 4
    endloop
  endfacet
  facet normal 0 0 1
    outer loop
      vertex -3.09204 2.53757 4
      vertex -19.3305 15.5895 4
      vertex -3.32588 2.22228 4
    endloop
  endfacet
  facet normal 0 0 1
    outer loop
      vertex -3.32588 2.22228 4
      vertex -20.8 13.567 4
      vertex -3.52768 1.88559 4
    endloop
  endfacet
  facet normal -0 0 1
    outer loop
      vertex -20.8 13.567 4
      vertex -3.32588 2.22228 4
      vertex -19.3305 15.5895 4
    endloop
  endfacet
  facet normal 0 0 1
    outer loop
      vertex 8.85307 -23.2019 4
      vertex 6.47542 -23.9744 4
      vertex 6.61386 -24.4004 4
    endloop
  endfacet
  facet normal -0 0 1
    outer loop
      vertex 3.82776 -1.16114 4
      vertex 8.85307 -23.2019 4
      vertex 3.92314 -0.780361 4
    endloop
  endfacet
  facet normal -0 0 1
    outer loop
      vertex 3.69552 -1.53073 4
      vertex 8.85307 -23.2019 4
      vertex 3.82776 -1.16114 4
    endloop
  endfacet
  facet normal -0 0 1
    outer loop
      vertex 3.52768 -1.88559 4
      vertex 8.85307 -23.2019 4
      vertex 3.69552 -1.53073 4
    endloop
  endfacet
  facet normal -0 0 1
    outer loop
      vertex 3.32588 -2.22228 4
      vertex 8.85307 -23.2019 4
      vertex 3.52768 -1.88559 4
    endloop
  endfacet
  facet normal -0 0 1
    outer loop
      vertex 3.09204 -2.53757 4
      vertex 8.85307 -23.2019 4
      vertex 3.32588 -2.22228 4
    endloop
  endfacet
  facet normal -0 0 1
    outer loop
      vertex 2.82843 -2.82843 4
      vertex 8.85307 -23.2019 4
      vertex 3.09204 -2.53757 4
    endloop
  endfacet
  facet normal -0 0 1
    outer loop
      vertex 2.53757 -3.09204 4
      vertex 8.85307 -23.2019 4
      vertex 2.82843 -2.82843 4
    endloop
  endfacet
  facet normal -0 0 1
    outer loop
      vertex 2.22228 -3.32588 4
      vertex 8.85307 -23.2019 4
      vertex 2.53757 -3.09204 4
    endloop
  endfacet
  facet normal -0 0 1
    outer loop
      vertex 1.88559 -3.52768 4
      vertex 8.85307 -23.2019 4
      vertex 2.22228 -3.32588 4
    endloop
  endfacet
  facet normal -0 0 1
    outer loop
      vertex 1.53073 -3.69552 4
      vertex 8.85307 -23.2019 4
      vertex 1.88559 -3.52768 4
    endloop
  endfacet
  facet normal -0 0 1
    outer loop
      vertex 1.16114 -3.82776 4
      vertex 8.85307 -23.2019 4
      vertex 1.53073 -3.69552 4
    endloop
  endfacet
  facet normal 0 0 1
    outer loop
      vertex 8.85307 -23.2019 4
      vertex 1.16114 -3.82776 4
      vertex 6.47542 -23.9744 4
    endloop
  endfacet
  facet normal -0 0 1
    outer loop
      vertex 0.780361 -3.92314 4
      vertex 6.47542 -23.9744 4
      vertex 1.16114 -3.82776 4
    endloop
  endfacet
  facet normal 0 0 1
    outer loop
      vertex 6.47542 -23.9744 4
      vertex 0.780361 -3.92314 4
      vertex 1.25 -24.802 4
    endloop
  endfacet
  facet normal -0 0 1
    outer loop
      vertex 0.392068 -3.98074 4
      vertex 1.25 -24.802 4
      vertex 0.780361 -3.92314 4
    endloop
  endfacet
  facet normal -0 0 1
    outer loop
      vertex 0 -4 4
      vertex 1.25 -24.802 4
      vertex 0.392068 -3.98074 4
    endloop
  endfacet
  facet normal 0 0 1
    outer loop
      vertex 1.25 -24.802 4
      vertex 0 -4 4
      vertex -1.25 -24.802 4
    endloop
  endfacet
  facet normal 0 0 1
    outer loop
      vertex -1.25 -24.802 4
      vertex 0 -4 4
      vertex -0.392068 -3.98074 4
    endloop
  endfacet
  facet normal 0 0 1
    outer loop
      vertex -1.25 -24.802 4
      vertex -0.392068 -3.98074 4
      vertex -0.780361 -3.92314 4
    endloop
  endfacet
  facet normal 0 0 1
    outer loop
      vertex -1.25 -24.802 4
      vertex -0.780361 -3.92314 4
      vertex -1.16114 -3.82776 4
    endloop
  endfacet
  facet normal 0 0 1
    outer loop
      vertex 1.25 -24.802 4
      vertex -1.25 -24.802 4
      vertex 1.25 -25.25 4
    endloop
  endfacet
  facet normal 0 0 1
    outer loop
      vertex 1.25 -25.25 4
      vertex -1.25 -24.802 4
      vertex -1.25 -25.25 4
    endloop
  endfacet
  facet normal 0 0 -1
    outer loop
      vertex 6.47542 -23.9744 -4
      vertex 8.85307 -23.2019 -4
      vertex 6.61386 -24.4004 -4
    endloop
  endfacet
  facet normal 0 0 -1
    outer loop
      vertex 6.61386 -24.4004 -4
      vertex 8.85307 -23.2019 -4
      vertex 8.9915 -23.6279 -4
    endloop
  endfacet
  facet normal 0 0 -1
    outer loop
      vertex 13.567 -20.8 -4
      vertex 15.5895 -19.3305 -4
      vertex 13.8303 -21.1624 -4
    endloop
  endfacet
  facet normal 0 0 -1
    outer loop
      vertex 13.8303 -21.1624 -4
      vertex 15.5895 -19.3305 -4
      vertex 15.8528 -19.6929 -4
    endloop
  endfacet
  facet normal 0 0 -1
    outer loop
      vertex 19.3305 -15.5895 -4
      vertex 20.8 -13.567 -4
      vertex 19.6929 -15.8528 -4
    endloop
  endfacet
  facet normal 0 0 -1
    outer loop
      vertex 19.6929 -15.8528 -4
      vertex 20.8 -13.567 -4
      vertex 21.1624 -13.8303 -4
    endloop
  endfacet
  facet normal 0 0 -1
    outer loop
      vertex 23.2019 -8.85307 -4
      vertex 23.9744 -6.47542 -4
      vertex 23.6279 -8.9915 -4
    endloop
  endfacet
  facet normal 0 0 -1
    outer loop
      vertex 23.6279 -8.9915 -4
      vertex 23.9744 -6.47542 -4
      vertex 24.4004 -6.61386 -4
    endloop
  endfacet
  facet normal 0 0 -1
    outer loop
      vertex 24.802 -1.25 -4
      vertex 25.25 1.25 -4
      vertex 25.25 -1.25 -4
    endloop
  endfacet
  facet normal 0 0 -1
    outer loop
      vertex 24.802 -1.25 -4
      vertex 24.802 1.25 -4
      vertex 25.25 1.25 -4
    endloop
  endfacet
  facet normal 0 0 -1
    outer loop
      vertex 23.9744 -6.47542 -4
      vertex 24.802 1.25 -4
      vertex 24.802 -1.25 -4
    endloop
  endfacet
  facet normal -0 0 -1
    outer loop
      vertex 24.802 1.25 -4
      vertex 23.9744 -6.47542 -4
      vertex 23.9744 6.47542 -4
    endloop
  endfacet
  facet normal 0 0 -1
    outer loop
      vertex 23.9744 6.47542 -4
      vertex 23.6279 8.9915 -4
      vertex 24.4004 6.61386 -4
    endloop
  endfacet
  facet normal -0 0 -1
    outer loop
      vertex 23.9744 -6.47542 -4
      vertex 23.2019 -8.85307 -4
      vertex 23.9744 6.47542 -4
    endloop
  endfacet
  facet normal 0 0 -1
    outer loop
      vertex 23.2019 8.85307 -4
      vertex 23.9744 6.47542 -4
      vertex 23.2019 -8.85307 -4
    endloop
  endfacet
  facet normal 0 0 -1
    outer loop
      vertex 23.9744 6.47542 -4
      vertex 23.2019 8.85307 -4
      vertex 23.6279 8.9915 -4
    endloop
  endfacet
  facet normal 0 0 -1
    outer loop
      vertex 20.8 -13.567 -4
      vertex 23.2019 8.85307 -4
      vertex 23.2019 -8.85307 -4
    endloop
  endfacet
  facet normal -0 0 -1
    outer loop
      vertex 23.2019 8.85307 -4
      vertex 20.8 -13.567 -4
      vertex 20.8 13.567 -4
    endloop
  endfacet
  facet normal 0 0 -1
    outer loop
      vertex 20.8 13.567 -4
      vertex 19.6929 15.8528 -4
      vertex 21.1624 13.8303 -4
    endloop
  endfacet
  facet normal -0 0 -1
    outer loop
      vertex 20.8 -13.567 -4
      vertex 19.3305 -15.5895 -4
      vertex 20.8 13.567 -4
    endloop
  endfacet
  facet normal 0 0 -1
    outer loop
      vertex 19.3305 15.5895 -4
      vertex 20.8 13.567 -4
      vertex 19.3305 -15.5895 -4
    endloop
  endfacet
  facet normal 0 0 -1
    outer loop
      vertex 20.8 13.567 -4
      vertex 19.3305 15.5895 -4
      vertex 19.6929 15.8528 -4
    endloop
  endfacet
  facet normal 0 0 -1
    outer loop
      vertex 15.5895 -19.3305 -4
      vertex 19.3305 15.5895 -4
      vertex 19.3305 -15.5895 -4
    endloop
  endfacet
  facet normal -0 0 -1
    outer loop
      vertex 19.3305 15.5895 -4
      vertex 15.5895 -19.3305 -4
      vertex 15.5895 19.3305 -4
    endloop
  endfacet
  facet normal 0 0 -1
    outer loop
      vertex 15.5895 19.3305 -4
      vertex 13.8303 21.1624 -4
      vertex 15.8528 19.6929 -4
    endloop
  endfacet
  facet normal -0 0 -1
    outer loop
      vertex 15.5895 -19.3305 -4
      vertex 13.567 -20.8 -4
      vertex 15.5895 19.3305 -4
    endloop
  endfacet
  facet normal 0 0 -1
    outer loop
      vertex 13.567 20.8 -4
      vertex 15.5895 19.3305 -4
      vertex 13.567 -20.8 -4
    endloop
  endfacet
  facet normal 0 0 -1
    outer loop
      vertex 15.5895 19.3305 -4
      vertex 13.567 20.8 -4
      vertex 13.8303 21.1624 -4
    endloop
  endfacet
  facet normal 0 0 -1
    outer loop
      vertex 8.85307 -23.2019 -4
      vertex 13.567 20.8 -4
      vertex 13.567 -20.8 -4
    endloop
  endfacet
  facet normal -0 0 -1
    outer loop
      vertex 13.567 20.8 -4
      vertex 8.85307 -23.2019 -4
      vertex 8.85307 23.2019 -4
    endloop
  endfacet
  facet normal 0 0 -1
    outer loop
      vertex 8.85307 23.2019 -4
      vertex 6.61386 24.4004 -4
      vertex 8.9915 23.6279 -4
    endloop
  endfacet
  facet normal 0 0 -1
    outer loop
      vertex 8.85307 -23.2019 -4
      vertex 4 0 -4
      vertex 8.85307 23.2019 -4
    endloop
  endfacet
  facet normal 0 0 -1
    outer loop
      vertex 1.16114 -3.82776 -4
      vertex 8.85307 -23.2019 -4
      vertex 6.47542 -23.9744 -4
    endloop
  endfacet
  facet normal 0 0 -1
    outer loop
      vertex 3.98074 0.392068 -4
      vertex 8.85307 23.2019 -4
      vertex 4 0 -4
    endloop
  endfacet
  facet normal 0 0 -1
    outer loop
      vertex 3.92314 0.780361 -4
      vertex 8.85307 23.2019 -4
      vertex 3.98074 0.392068 -4
    endloop
  endfacet
  facet normal 0 0 -1
    outer loop
      vertex 8.85307 -23.2019 -4
      vertex 3.98074 -0.392068 -4
      vertex 4 0 -4
    endloop
  endfacet
  facet normal 0 0 -1
    outer loop
      vertex 8.85307 -23.2019 -4
      vertex 3.92314 -0.780361 -4
      vertex 3.98074 -0.392068 -4
    endloop
  endfacet
  facet normal 0 0 -1
    outer loop
      vertex 8.85307 -23.2019 -4
      vertex 3.82776 -1.16114 -4
      vertex 3.92314 -0.780361 -4
    endloop
  endfacet
  facet normal 0 0 -1
    outer loop
      vertex 8.85307 -23.2019 -4
      vertex 3.69552 -1.53073 -4
      vertex 3.82776 -1.16114 -4
    endloop
  endfacet
  facet normal 0 0 -1
    outer loop
      vertex 8.85307 -23.2019 -4
      vertex 3.52768 -1.88559 -4
      vertex 3.69552 -1.53073 -4
    endloop
  endfacet
  facet normal 0 0 -1
    outer loop
      vertex 8.85307 -23.2019 -4
      vertex 3.32588 -2.22228 -4
      vertex 3.52768 -1.88559 -4
    endloop
  endfacet
  facet normal 0 0 -1
    outer loop
      vertex 8.85307 -23.2019 -4
      vertex 3.09204 -2.53757 -4
      vertex 3.32588 -2.22228 -4
    endloop
  endfacet
  facet normal 0 0 -1
    outer loop
      vertex 8.85307 -23.2019 -4
      vertex 2.82843 -2.82843 -4
      vertex 3.09204 -2.53757 -4
    endloop
  endfacet
  facet normal 0 0 -1
    outer loop
      vertex 8.85307 -23.2019 -4
      vertex 2.53757 -3.09204 -4
      vertex 2.82843 -2.82843 -4
    endloop
  endfacet
  facet normal 0 0 -1
    outer loop
      vertex 8.85307 -23.2019 -4
      vertex 2.22228 -3.32588 -4
      vertex 2.53757 -3.09204 -4
    endloop
  endfacet
  facet normal 0 0 -1
    outer loop
      vertex 8.85307 -23.2019 -4
      vertex 1.88559 -3.52768 -4
      vertex 2.22228 -3.32588 -4
    endloop
  endfacet
  facet normal 0 0 -1
    outer loop
      vertex 8.85307 -23.2019 -4
      vertex 1.53073 -3.69552 -4
      vertex 1.88559 -3.52768 -4
    endloop
  endfacet
  facet normal 0 0 -1
    outer loop
      vertex 0.780361 -3.92314 -4
      vertex 6.47542 -23.9744 -4
      vertex 1.25 -24.802 -4
    endloop
  endfacet
  facet normal 0 0 -1
    outer loop
      vertex 8.85307 -23.2019 -4
      vertex 1.16114 -3.82776 -4
      vertex 1.53073 -3.69552 -4
    endloop
  endfacet
  facet normal 0 0 -1
    outer loop
      vertex -4 0 -4
      vertex -24.802 1.25 -4
      vertex -3.98074 0.392068 -4
    endloop
  endfacet
  facet normal 0 0 -1
    outer loop
      vertex -3.98074 0.392068 -4
      vertex -24.802 1.25 -4
      vertex -23.9744 6.47542 -4
    endloop
  endfacet
  facet normal 0 0 -1
    outer loop
      vertex -25.25 -1.25 -4
      vertex -24.802 1.25 -4
      vertex -24.802 -1.25 -4
    endloop
  endfacet
  facet normal -0 0 -1
    outer loop
      vertex -24.802 1.25 -4
      vertex -25.25 -1.25 -4
      vertex -25.25 1.25 -4
    endloop
  endfacet
  facet normal -0 0 -1
    outer loop
      vertex -3.98074 -0.392068 -4
      vertex -24.802 -1.25 -4
      vertex -4 0 -4
    endloop
  endfacet
  facet normal 0 0 -1
    outer loop
      vertex -3.98074 0.392068 -4
      vertex -23.2019 8.85307 -4
      vertex -20.8 13.567 -4
    endloop
  endfacet
  facet normal 0 0 -1
    outer loop
      vertex -23.9744 -6.47542 -4
      vertex -23.2019 -8.85307 -4
      vertex -23.6279 -8.9915 -4
    endloop
  endfacet
  facet normal 0 0 -1
    outer loop
      vertex -24.802 1.25 -4
      vertex -4 0 -4
      vertex -24.802 -1.25 -4
    endloop
  endfacet
  facet normal 0 0 -1
    outer loop
      vertex -3.98074 0.392068 -4
      vertex -23.9744 6.47542 -4
      vertex -23.2019 8.85307 -4
    endloop
  endfacet
  facet normal 0 -0 -1
    outer loop
      vertex -23.9744 -6.47542 -4
      vertex -23.6279 -8.9915 -4
      vertex -24.4004 -6.61386 -4
    endloop
  endfacet
  facet normal 0 0 -1
    outer loop
      vertex -24.802 -1.25 -4
      vertex -3.92314 -0.780361 -4
      vertex -23.9744 -6.47542 -4
    endloop
  endfacet
  facet normal 0 0 -1
    outer loop
      vertex -3.98074 0.392068 -4
      vertex -19.3305 15.5895 -4
      vertex -15.5895 19.3305 -4
    endloop
  endfacet
  facet normal 0 0 -1
    outer loop
      vertex -20.8 -13.567 -4
      vertex -19.3305 -15.5895 -4
      vertex -19.6929 -15.8528 -4
    endloop
  endfacet
  facet normal -0 0 -1
    outer loop
      vertex -3.92314 -0.780361 -4
      vertex -24.802 -1.25 -4
      vertex -3.98074 -0.392068 -4
    endloop
  endfacet
  facet normal 0 0 -1
    outer loop
      vertex -3.98074 0.392068 -4
      vertex -20.8 13.567 -4
      vertex -19.3305 15.5895 -4
    endloop
  endfacet
  facet normal 0 -0 -1
    outer loop
      vertex -20.8 -13.567 -4
      vertex -19.6929 -15.8528 -4
      vertex -21.1624 -13.8303 -4
    endloop
  endfacet
  facet normal 0 0 -1
    outer loop
      vertex -23.9744 -6.47542 -4
      vertex -3.82776 -1.16114 -4
      vertex -23.2019 -8.85307 -4
    endloop
  endfacet
  facet normal 0 0 -1
    outer loop
      vertex -3.98074 0.392068 -4
      vertex -13.567 20.8 -4
      vertex -8.85307 23.2019 -4
    endloop
  endfacet
  facet normal 0 0 -1
    outer loop
      vertex -15.5895 -19.3305 -4
      vertex -13.567 -20.8 -4
      vertex -13.8303 -21.1624 -4
    endloop
  endfacet
  facet normal -0 0 -1
    outer loop
      vertex -3.82776 -1.16114 -4
      vertex -23.9744 -6.47542 -4
      vertex -3.92314 -0.780361 -4
    endloop
  endfacet
  facet normal 0 0 -1
    outer loop
      vertex -3.98074 0.392068 -4
      vertex -15.5895 19.3305 -4
      vertex -13.567 20.8 -4
    endloop
  endfacet
  facet normal 0 -0 -1
    outer loop
      vertex -15.5895 -19.3305 -4
      vertex -13.8303 -21.1624 -4
      vertex -15.8528 -19.6929 -4
    endloop
  endfacet
  facet normal -0 0 -1
    outer loop
      vertex -6.47542 23.9744 -4
      vertex -8.85307 23.2019 -4
      vertex -6.61386 24.4004 -4
    endloop
  endfacet
  facet normal 0 0 -1
    outer loop
      vertex -6.61386 24.4004 -4
      vertex -8.85307 23.2019 -4
      vertex -8.9915 23.6279 -4
    endloop
  endfacet
  facet normal -0 0 -1
    outer loop
      vertex -13.567 20.8 -4
      vertex -15.5895 19.3305 -4
      vertex -13.8303 21.1624 -4
    endloop
  endfacet
  facet normal 0 0 -1
    outer loop
      vertex -13.8303 21.1624 -4
      vertex -15.5895 19.3305 -4
      vertex -15.8528 19.6929 -4
    endloop
  endfacet
  facet normal -0 0 -1
    outer loop
      vertex -19.3305 15.5895 -4
      vertex -20.8 13.567 -4
      vertex -19.6929 15.8528 -4
    endloop
  endfacet
  facet normal 0 0 -1
    outer loop
      vertex -19.6929 15.8528 -4
      vertex -20.8 13.567 -4
      vertex -21.1624 13.8303 -4
    endloop
  endfacet
  facet normal -0 0 -1
    outer loop
      vertex -23.2019 8.85307 -4
      vertex -23.9744 6.47542 -4
      vertex -23.6279 8.9915 -4
    endloop
  endfacet
  facet normal 0 0 -1
    outer loop
      vertex -23.6279 8.9915 -4
      vertex -23.9744 6.47542 -4
      vertex -24.4004 6.61386 -4
    endloop
  endfacet
  facet normal 0 0 -1
    outer loop
      vertex -8.85307 23.2019 -4
      vertex -1.16114 3.82776 -4
      vertex -1.53073 3.69552 -4
    endloop
  endfacet
  facet normal 0 0 -1
    outer loop
      vertex -8.85307 23.2019 -4
      vertex -1.53073 3.69552 -4
      vertex -1.88559 3.52768 -4
    endloop
  endfacet
  facet normal 0 0 -1
    outer loop
      vertex -8.85307 23.2019 -4
      vertex -1.88559 3.52768 -4
      vertex -2.22228 3.32588 -4
    endloop
  endfacet
  facet normal 0 0 -1
    outer loop
      vertex -8.85307 23.2019 -4
      vertex -2.22228 3.32588 -4
      vertex -2.53757 3.09204 -4
    endloop
  endfacet
  facet normal 0 0 -1
    outer loop
      vertex -8.85307 23.2019 -4
      vertex -2.53757 3.09204 -4
      vertex -2.82843 2.82843 -4
    endloop
  endfacet
  facet normal 0 0 -1
    outer loop
      vertex -8.85307 23.2019 -4
      vertex -2.82843 2.82843 -4
      vertex -3.09204 2.53757 -4
    endloop
  endfacet
  facet normal 0 0 -1
    outer loop
      vertex -8.85307 23.2019 -4
      vertex -3.09204 2.53757 -4
      vertex -3.32588 2.22228 -4
    endloop
  endfacet
  facet normal 0 0 -1
    outer loop
      vertex -8.85307 23.2019 -4
      vertex -3.32588 2.22228 -4
      vertex -3.52768 1.88559 -4
    endloop
  endfacet
  facet normal 0 0 -1
    outer loop
      vertex -8.85307 23.2019 -4
      vertex -3.52768 1.88559 -4
      vertex -3.69552 1.53073 -4
    endloop
  endfacet
  facet normal 0 0 -1
    outer loop
      vertex -8.85307 23.2019 -4
      vertex -3.69552 1.53073 -4
      vertex -3.82776 1.16114 -4
    endloop
  endfacet
  facet normal 0 0 -1
    outer loop
      vertex -8.85307 23.2019 -4
      vertex -3.82776 1.16114 -4
      vertex -3.92314 0.780361 -4
    endloop
  endfacet
  facet normal 0 0 -1
    outer loop
      vertex -8.85307 23.2019 -4
      vertex -3.92314 0.780361 -4
      vertex -3.98074 0.392068 -4
    endloop
  endfacet
  facet normal 0 0 -1
    outer loop
      vertex -23.2019 -8.85307 -4
      vertex -3.52768 -1.88559 -4
      vertex -20.8 -13.567 -4
    endloop
  endfacet
  facet normal 0 0 -1
    outer loop
      vertex -1.16114 3.82776 -4
      vertex -6.47542 23.9744 -4
      vertex -1.25 24.802 -4
    endloop
  endfacet
  facet normal -0 0 -1
    outer loop
      vertex -3.52768 -1.88559 -4
      vertex -23.2019 -8.85307 -4
      vertex -3.69552 -1.53073 -4
    endloop
  endfacet
  facet normal 0 0 -1
    outer loop
      vertex -8.85307 -23.2019 -4
      vertex -6.47542 -23.9744 -4
      vertex -6.61386 -24.4004 -4
    endloop
  endfacet
  facet normal -0 0 -1
    outer loop
      vertex -3.69552 -1.53073 -4
      vertex -23.2019 -8.85307 -4
      vertex -3.82776 -1.16114 -4
    endloop
  endfacet
  facet normal 0 0 -1
    outer loop
      vertex -1.16114 3.82776 -4
      vertex -8.85307 23.2019 -4
      vertex -6.47542 23.9744 -4
    endloop
  endfacet
  facet normal 0 -0 -1
    outer loop
      vertex -8.85307 -23.2019 -4
      vertex -6.61386 -24.4004 -4
      vertex -8.9915 -23.6279 -4
    endloop
  endfacet
  facet normal 0 0 -1
    outer loop
      vertex -1.25 -24.802 -4
      vertex 1.25 -24.802 -4
      vertex 1.25 -25.25 -4
    endloop
  endfacet
  facet normal 0 0 -1
    outer loop
      vertex 6.47542 -23.9744 -4
      vertex 0.780361 -3.92314 -4
      vertex 1.16114 -3.82776 -4
    endloop
  endfacet
  facet normal 0 0 -1
    outer loop
      vertex 1.25 -24.802 -4
      vertex 0.392068 -3.98074 -4
      vertex 0.780361 -3.92314 -4
    endloop
  endfacet
  facet normal 0 -0 -1
    outer loop
      vertex 0 -4 -4
      vertex 1.25 -24.802 -4
      vertex -1.25 -24.802 -4
    endloop
  endfacet
  facet normal 0 0 -1
    outer loop
      vertex 1.25 -24.802 -4
      vertex 0 -4 -4
      vertex 0.392068 -3.98074 -4
    endloop
  endfacet
  facet normal -0 0 -1
    outer loop
      vertex 0 -4 -4
      vertex -1.25 -24.802 -4
      vertex -0.392068 -3.98074 -4
    endloop
  endfacet
  facet normal -0 0 -1
    outer loop
      vertex -0.392068 -3.98074 -4
      vertex -1.25 -24.802 -4
      vertex -0.780361 -3.92314 -4
    endloop
  endfacet
  facet normal 0 0 -1
    outer loop
      vertex -1.25 -24.802 -4
      vertex 1.25 -25.25 -4
      vertex -1.25 -25.25 -4
    endloop
  endfacet
  facet normal 0 0 -1
    outer loop
      vertex -6.47542 -23.9744 -4
      vertex -0.780361 -3.92314 -4
      vertex -1.25 -24.802 -4
    endloop
  endfacet
  facet normal -0 0 -1
    outer loop
      vertex -0.780361 -3.92314 -4
      vertex -6.47542 -23.9744 -4
      vertex -1.16114 -3.82776 -4
    endloop
  endfacet
  facet normal 0 0 -1
    outer loop
      vertex -8.85307 -23.2019 -4
      vertex -1.16114 -3.82776 -4
      vertex -6.47542 -23.9744 -4
    endloop
  endfacet
  facet normal -0 0 -1
    outer loop
      vertex -1.16114 -3.82776 -4
      vertex -8.85307 -23.2019 -4
      vertex -1.53073 -3.69552 -4
    endloop
  endfacet
  facet normal -0 0 -1
    outer loop
      vertex -1.53073 -3.69552 -4
      vertex -8.85307 -23.2019 -4
      vertex -1.88559 -3.52768 -4
    endloop
  endfacet
  facet normal 0 0 -1
    outer loop
      vertex -13.567 -20.8 -4
      vertex -1.88559 -3.52768 -4
      vertex -8.85307 -23.2019 -4
    endloop
  endfacet
  facet normal -0 0 -1
    outer loop
      vertex -1.88559 -3.52768 -4
      vertex -13.567 -20.8 -4
      vertex -2.22228 -3.32588 -4
    endloop
  endfacet
  facet normal 0 0 -1
    outer loop
      vertex -15.5895 -19.3305 -4
      vertex -2.22228 -3.32588 -4
      vertex -13.567 -20.8 -4
    endloop
  endfacet
  facet normal -0 0 -1
    outer loop
      vertex -2.22228 -3.32588 -4
      vertex -15.5895 -19.3305 -4
      vertex -2.53757 -3.09204 -4
    endloop
  endfacet
  facet normal -0 0 -1
    outer loop
      vertex -2.53757 -3.09204 -4
      vertex -15.5895 -19.3305 -4
      vertex -2.82843 -2.82843 -4
    endloop
  endfacet
  facet normal 0 0 -1
    outer loop
      vertex -19.3305 -15.5895 -4
      vertex -2.82843 -2.82843 -4
      vertex -15.5895 -19.3305 -4
    endloop
  endfacet
  facet normal -0 0 -1
    outer loop
      vertex -2.82843 -2.82843 -4
      vertex -19.3305 -15.5895 -4
      vertex -3.09204 -2.53757 -4
    endloop
  endfacet
  facet normal -0 0 -1
    outer loop
      vertex -3.09204 -2.53757 -4
      vertex -19.3305 -15.5895 -4
      vertex -3.32588 -2.22228 -4
    endloop
  endfacet
  facet normal -0 0 -1
    outer loop
      vertex -3.32588 -2.22228 -4
      vertex -20.8 -13.567 -4
      vertex -3.52768 -1.88559 -4
    endloop
  endfacet
  facet normal 0 0 -1
    outer loop
      vertex -20.8 -13.567 -4
      vertex -3.32588 -2.22228 -4
      vertex -19.3305 -15.5895 -4
    endloop
  endfacet
  facet normal 0 0 -1
    outer loop
      vertex 8.85307 23.2019 -4
      vertex 6.47542 23.9744 -4
      vertex 6.61386 24.4004 -4
    endloop
  endfacet
  facet normal 0 0 -1
    outer loop
      vertex 3.82776 1.16114 -4
      vertex 8.85307 23.2019 -4
      vertex 3.92314 0.780361 -4
    endloop
  endfacet
  facet normal 0 0 -1
    outer loop
      vertex 3.69552 1.53073 -4
      vertex 8.85307 23.2019 -4
      vertex 3.82776 1.16114 -4
    endloop
  endfacet
  facet normal 0 0 -1
    outer loop
      vertex 3.52768 1.88559 -4
      vertex 8.85307 23.2019 -4
      vertex 3.69552 1.53073 -4
    endloop
  endfacet
  facet normal 0 0 -1
    outer loop
      vertex 3.32588 2.22228 -4
      vertex 8.85307 23.2019 -4
      vertex 3.52768 1.88559 -4
    endloop
  endfacet
  facet normal 0 0 -1
    outer loop
      vertex 3.09204 2.53757 -4
      vertex 8.85307 23.2019 -4
      vertex 3.32588 2.22228 -4
    endloop
  endfacet
  facet normal 0 0 -1
    outer loop
      vertex 2.82843 2.82843 -4
      vertex 8.85307 23.2019 -4
      vertex 3.09204 2.53757 -4
    endloop
  endfacet
  facet normal 0 0 -1
    outer loop
      vertex 2.53757 3.09204 -4
      vertex 8.85307 23.2019 -4
      vertex 2.82843 2.82843 -4
    endloop
  endfacet
  facet normal 0 0 -1
    outer loop
      vertex 2.22228 3.32588 -4
      vertex 8.85307 23.2019 -4
      vertex 2.53757 3.09204 -4
    endloop
  endfacet
  facet normal 0 0 -1
    outer loop
      vertex 1.88559 3.52768 -4
      vertex 8.85307 23.2019 -4
      vertex 2.22228 3.32588 -4
    endloop
  endfacet
  facet normal 0 0 -1
    outer loop
      vertex 1.53073 3.69552 -4
      vertex 8.85307 23.2019 -4
      vertex 1.88559 3.52768 -4
    endloop
  endfacet
  facet normal 0 0 -1
    outer loop
      vertex 1.16114 3.82776 -4
      vertex 8.85307 23.2019 -4
      vertex 1.53073 3.69552 -4
    endloop
  endfacet
  facet normal -0 0 -1
    outer loop
      vertex 8.85307 23.2019 -4
      vertex 1.16114 3.82776 -4
      vertex 6.47542 23.9744 -4
    endloop
  endfacet
  facet normal 0 0 -1
    outer loop
      vertex 0.780361 3.92314 -4
      vertex 6.47542 23.9744 -4
      vertex 1.16114 3.82776 -4
    endloop
  endfacet
  facet normal -0 0 -1
    outer loop
      vertex 6.47542 23.9744 -4
      vertex 0.780361 3.92314 -4
      vertex 1.25 24.802 -4
    endloop
  endfacet
  facet normal 0 0 -1
    outer loop
      vertex 0.392068 3.98074 -4
      vertex 1.25 24.802 -4
      vertex 0.780361 3.92314 -4
    endloop
  endfacet
  facet normal 0 0 -1
    outer loop
      vertex 0 4 -4
      vertex 1.25 24.802 -4
      vertex 0.392068 3.98074 -4
    endloop
  endfacet
  facet normal -0 0 -1
    outer loop
      vertex 1.25 24.802 -4
      vertex 0 4 -4
      vertex -1.25 24.802 -4
    endloop
  endfacet
  facet normal 0 0 -1
    outer loop
      vertex -1.25 24.802 -4
      vertex 0 4 -4
      vertex -0.392068 3.98074 -4
    endloop
  endfacet
  facet normal 0 0 -1
    outer loop
      vertex -1.25 24.802 -4
      vertex -0.392068 3.98074 -4
      vertex -0.780361 3.92314 -4
    endloop
  endfacet
  facet normal 0 0 -1
    outer loop
      vertex -1.25 24.802 -4
      vertex -0.780361 3.92314 -4
      vertex -1.16114 3.82776 -4
    endloop
  endfacet
  facet normal 0 0 -1
    outer loop
      vertex 1.25 24.802 -4
      vertex -1.25 24.802 -4
      vertex 1.25 25.25 -4
    endloop
  endfacet
  facet normal -0 0 -1
    outer loop
      vertex 1.25 25.25 -4
      vertex -1.25 24.802 -4
      vertex -1.25 25.25 -4
    endloop
  endfacet
  facet normal 0 1 -0
    outer loop
      vertex 25.25 1.25 -4
      vertex 24.802 1.25 4
      vertex 25.25 1.25 4
    endloop
  endfacet
  facet normal 0 1 0
    outer loop
      vertex 24.802 1.25 4
      vertex 25.25 1.25 -4
      vertex 24.802 1.25 -4
    endloop
  endfacet
  facet normal 0 -1 0
    outer loop
      vertex 24.802 -1.25 -4
      vertex 25.25 -1.25 4
      vertex 24.802 -1.25 4
    endloop
  endfacet
  facet normal 0 -1 -0
    outer loop
      vertex 25.25 -1.25 4
      vertex 24.802 -1.25 -4
      vertex 25.25 -1.25 -4
    endloop
  endfacet
  facet normal -0.309046 0.951047 0
    outer loop
      vertex 23.6279 8.9915 -4
      vertex 23.2019 8.85307 4
      vertex 23.6279 8.9915 4
    endloop
  endfacet
  facet normal -0.309046 0.951047 0
    outer loop
      vertex 23.2019 8.85307 4
      vertex 23.6279 8.9915 -4
      vertex 23.2019 8.85307 -4
    endloop
  endfacet
  facet normal 0.309066 -0.951041 0
    outer loop
      vertex 23.9744 6.47542 -4
      vertex 24.4004 6.61386 4
      vertex 23.9744 6.47542 4
    endloop
  endfacet
  facet normal 0.309066 -0.951041 0
    outer loop
      vertex 24.4004 6.61386 4
      vertex 23.9744 6.47542 -4
      vertex 24.4004 6.61386 -4
    endloop
  endfacet
  facet normal 0.951061 0.309002 0
    outer loop
      vertex 24.4004 6.61386 4
      vertex 23.6279 8.9915 -4
      vertex 23.6279 8.9915 4
    endloop
  endfacet
  facet normal 0.951061 0.309002 0
    outer loop
      vertex 23.6279 8.9915 -4
      vertex 24.4004 6.61386 4
      vertex 24.4004 6.61386 -4
    endloop
  endfacet
  facet normal -0.587787 0.809016 0
    outer loop
      vertex 19.6929 15.8528 -4
      vertex 19.3305 15.5895 4
      vertex 19.6929 15.8528 4
    endloop
  endfacet
  facet normal -0.587787 0.809016 0
    outer loop
      vertex 19.3305 15.5895 4
      vertex 19.6929 15.8528 -4
      vertex 19.3305 15.5895 -4
    endloop
  endfacet
  facet normal 0.587787 -0.809016 0
    outer loop
      vertex 20.8 13.567 -4
      vertex 21.1624 13.8303 4
      vertex 20.8 13.567 4
    endloop
  endfacet
  facet normal 0.587787 -0.809016 0
    outer loop
      vertex 21.1624 13.8303 4
      vertex 20.8 13.567 -4
      vertex 21.1624 13.8303 -4
    endloop
  endfacet
  facet normal 0.809004 0.587803 0
    outer loop
      vertex 21.1624 13.8303 4
      vertex 19.6929 15.8528 -4
      vertex 19.6929 15.8528 4
    endloop
  endfacet
  facet normal 0.809004 0.587803 0
    outer loop
      vertex 19.6929 15.8528 -4
      vertex 21.1624 13.8303 4
      vertex 21.1624 13.8303 -4
    endloop
  endfacet
  facet normal -0.809016 0.587787 0
    outer loop
      vertex 13.567 20.8 -4
      vertex 13.8303 21.1624 4
      vertex 13.8303 21.1624 -4
    endloop
  endfacet
  facet normal -0.809016 0.587787 0
    outer loop
      vertex 13.8303 21.1624 4
      vertex 13.567 20.8 -4
      vertex 13.567 20.8 4
    endloop
  endfacet
  facet normal 0.809016 -0.587787 0
    outer loop
      vertex 15.5895 19.3305 4
      vertex 15.8528 19.6929 -4
      vertex 15.8528 19.6929 4
    endloop
  endfacet
  facet normal 0.809016 -0.587787 0
    outer loop
      vertex 15.8528 19.6929 -4
      vertex 15.5895 19.3305 4
      vertex 15.5895 19.3305 -4
    endloop
  endfacet
  facet normal 0.587803 0.809004 -0
    outer loop
      vertex 15.8528 19.6929 -4
      vertex 13.8303 21.1624 4
      vertex 15.8528 19.6929 4
    endloop
  endfacet
  facet normal 0.587803 0.809004 0
    outer loop
      vertex 13.8303 21.1624 4
      vertex 15.8528 19.6929 -4
      vertex 13.8303 21.1624 -4
    endloop
  endfacet
  facet normal -0.951041 0.309066 0
    outer loop
      vertex 6.47542 23.9744 -4
      vertex 6.61386 24.4004 4
      vertex 6.61386 24.4004 -4
    endloop
  endfacet
  facet normal -0.951041 0.309066 0
    outer loop
      vertex 6.61386 24.4004 4
      vertex 6.47542 23.9744 -4
      vertex 6.47542 23.9744 4
    endloop
  endfacet
  facet normal 0.951047 -0.309046 0
    outer loop
      vertex 8.85307 23.2019 4
      vertex 8.9915 23.6279 -4
      vertex 8.9915 23.6279 4
    endloop
  endfacet
  facet normal 0.951047 -0.309046 0
    outer loop
      vertex 8.9915 23.6279 -4
      vertex 8.85307 23.2019 4
      vertex 8.85307 23.2019 -4
    endloop
  endfacet
  facet normal 0.309002 0.951061 -0
    outer loop
      vertex 8.9915 23.6279 -4
      vertex 6.61386 24.4004 4
      vertex 8.9915 23.6279 4
    endloop
  endfacet
  facet normal 0.309002 0.951061 0
    outer loop
      vertex 6.61386 24.4004 4
      vertex 8.9915 23.6279 -4
      vertex 6.61386 24.4004 -4
    endloop
  endfacet
  facet normal -1 0 0
    outer loop
      vertex -1.25 24.802 -4
      vertex -1.25 25.25 4
      vertex -1.25 25.25 -4
    endloop
  endfacet
  facet normal -1 -0 0
    outer loop
      vertex -1.25 25.25 4
      vertex -1.25 24.802 -4
      vertex -1.25 24.802 4
    endloop
  endfacet
  facet normal 1 -0 0
    outer loop
      vertex 1.25 24.802 4
      vertex 1.25 25.25 -4
      vertex 1.25 25.25 4
    endloop
  endfacet
  facet normal 1 0 0
    outer loop
      vertex 1.25 25.25 -4
      vertex 1.25 24.802 4
      vertex 1.25 24.802 -4
    endloop
  endfacet
  facet normal 0 1 -0
    outer loop
      vertex 1.25 25.25 -4
      vertex -1.25 25.25 4
      vertex 1.25 25.25 4
    endloop
  endfacet
  facet normal 0 1 0
    outer loop
      vertex -1.25 25.25 4
      vertex 1.25 25.25 -4
      vertex -1.25 25.25 -4
    endloop
  endfacet
  facet normal -0.951047 -0.309046 0
    outer loop
      vertex -8.85307 23.2019 -4
      vertex -8.9915 23.6279 4
      vertex -8.9915 23.6279 -4
    endloop
  endfacet
  facet normal -0.951047 -0.309046 0
    outer loop
      vertex -8.9915 23.6279 4
      vertex -8.85307 23.2019 -4
      vertex -8.85307 23.2019 4
    endloop
  endfacet
  facet normal 0.951041 0.309066 0
    outer loop
      vertex -6.47542 23.9744 4
      vertex -6.61386 24.4004 -4
      vertex -6.61386 24.4004 4
    endloop
  endfacet
  facet normal 0.951041 0.309066 0
    outer loop
      vertex -6.61386 24.4004 -4
      vertex -6.47542 23.9744 4
      vertex -6.47542 23.9744 -4
    endloop
  endfacet
  facet normal -0.309002 0.951061 0
    outer loop
      vertex -6.61386 24.4004 -4
      vertex -8.9915 23.6279 4
      vertex -6.61386 24.4004 4
    endloop
  endfacet
  facet normal -0.309002 0.951061 0
    outer loop
      vertex -8.9915 23.6279 4
      vertex -6.61386 24.4004 -4
      vertex -8.9915 23.6279 -4
    endloop
  endfacet
  facet normal -0.809016 -0.587787 0
    outer loop
      vertex -15.5895 19.3305 -4
      vertex -15.8528 19.6929 4
      vertex -15.8528 19.6929 -4
    endloop
  endfacet
  facet normal -0.809016 -0.587787 0
    outer loop
      vertex -15.8528 19.6929 4
      vertex -15.5895 19.3305 -4
      vertex -15.5895 19.3305 4
    endloop
  endfacet
  facet normal 0.809016 0.587787 0
    outer loop
      vertex -13.567 20.8 4
      vertex -13.8303 21.1624 -4
      vertex -13.8303 21.1624 4
    endloop
  endfacet
  facet normal 0.809016 0.587787 0
    outer loop
      vertex -13.8303 21.1624 -4
      vertex -13.567 20.8 4
      vertex -13.567 20.8 -4
    endloop
  endfacet
  facet normal -0.587803 0.809004 0
    outer loop
      vertex -13.8303 21.1624 -4
      vertex -15.8528 19.6929 4
      vertex -13.8303 21.1624 4
    endloop
  endfacet
  facet normal -0.587803 0.809004 0
    outer loop
      vertex -15.8528 19.6929 4
      vertex -13.8303 21.1624 -4
      vertex -15.8528 19.6929 -4
    endloop
  endfacet
  facet normal -0.587787 -0.809016 0
    outer loop
      vertex -21.1624 13.8303 -4
      vertex -20.8 13.567 4
      vertex -21.1624 13.8303 4
    endloop
  endfacet
  facet normal -0.587787 -0.809016 -0
    outer loop
      vertex -20.8 13.567 4
      vertex -21.1624 13.8303 -4
      vertex -20.8 13.567 -4
    endloop
  endfacet
  facet normal 0.587787 0.809016 -0
    outer loop
      vertex -19.3305 15.5895 -4
      vertex -19.6929 15.8528 4
      vertex -19.3305 15.5895 4
    endloop
  endfacet
  facet normal 0.587787 0.809016 0
    outer loop
      vertex -19.6929 15.8528 4
      vertex -19.3305 15.5895 -4
      vertex -19.6929 15.8528 -4
    endloop
  endfacet
  facet normal -0.809004 0.587803 0
    outer loop
      vertex -21.1624 13.8303 -4
      vertex -19.6929 15.8528 4
      vertex -19.6929 15.8528 -4
    endloop
  endfacet
  facet normal -0.809004 0.587803 0
    outer loop
      vertex -19.6929 15.8528 4
      vertex -21.1624 13.8303 -4
      vertex -21.1624 13.8303 4
    endloop
  endfacet
  facet normal -0.309066 -0.951041 0
    outer loop
      vertex -24.4004 6.61386 -4
      vertex -23.9744 6.47542 4
      vertex -24.4004 6.61386 4
    endloop
  endfacet
  facet normal -0.309066 -0.951041 -0
    outer loop
      vertex -23.9744 6.47542 4
      vertex -24.4004 6.61386 -4
      vertex -23.9744 6.47542 -4
    endloop
  endfacet
  facet normal 0.309046 0.951047 -0
    outer loop
      vertex -23.2019 8.85307 -4
      vertex -23.6279 8.9915 4
      vertex -23.2019 8.85307 4
    endloop
  endfacet
  facet normal 0.309046 0.951047 0
    outer loop
      vertex -23.6279 8.9915 4
      vertex -23.2019 8.85307 -4
      vertex -23.6279 8.9915 -4
    endloop
  endfacet
  facet normal -0.951061 0.309002 0
    outer loop
      vertex -24.4004 6.61386 -4
      vertex -23.6279 8.9915 4
      vertex -23.6279 8.9915 -4
    endloop
  endfacet
  facet normal -0.951061 0.309002 0
    outer loop
      vertex -23.6279 8.9915 4
      vertex -24.4004 6.61386 -4
      vertex -24.4004 6.61386 4
    endloop
  endfacet
  facet normal 0 -1 0
    outer loop
      vertex -25.25 -1.25 -4
      vertex -24.802 -1.25 4
      vertex -25.25 -1.25 4
    endloop
  endfacet
  facet normal 0 -1 -0
    outer loop
      vertex -24.802 -1.25 4
      vertex -25.25 -1.25 -4
      vertex -24.802 -1.25 -4
    endloop
  endfacet
  facet normal 0 1 -0
    outer loop
      vertex -24.802 1.25 -4
      vertex -25.25 1.25 4
      vertex -24.802 1.25 4
    endloop
  endfacet
  facet normal 0 1 0
    outer loop
      vertex -25.25 1.25 4
      vertex -24.802 1.25 -4
      vertex -25.25 1.25 -4
    endloop
  endfacet
  facet normal -1 0 0
    outer loop
      vertex -25.25 -1.25 -4
      vertex -25.25 1.25 4
      vertex -25.25 1.25 -4
    endloop
  endfacet
  facet normal -1 -0 0
    outer loop
      vertex -25.25 1.25 4
      vertex -25.25 -1.25 -4
      vertex -25.25 -1.25 4
    endloop
  endfacet
  facet normal -0.951061 -0.309002 0
    outer loop
      vertex -23.6279 -8.9915 -4
      vertex -24.4004 -6.61386 4
      vertex -24.4004 -6.61386 -4
    endloop
  endfacet
  facet normal -0.951061 -0.309002 0
    outer loop
      vertex -24.4004 -6.61386 4
      vertex -23.6279 -8.9915 -4
      vertex -23.6279 -8.9915 4
    endloop
  endfacet
  facet normal 0.309046 -0.951047 0
    outer loop
      vertex -23.6279 -8.9915 -4
      vertex -23.2019 -8.85307 4
      vertex -23.6279 -8.9915 4
    endloop
  endfacet
  facet normal 0.309046 -0.951047 0
    outer loop
      vertex -23.2019 -8.85307 4
      vertex -23.6279 -8.9915 -4
      vertex -23.2019 -8.85307 -4
    endloop
  endfacet
  facet normal -0.309066 0.951041 0
    outer loop
      vertex -23.9744 -6.47542 -4
      vertex -24.4004 -6.61386 4
      vertex -23.9744 -6.47542 4
    endloop
  endfacet
  facet normal -0.309066 0.951041 0
    outer loop
      vertex -24.4004 -6.61386 4
      vertex -23.9744 -6.47542 -4
      vertex -24.4004 -6.61386 -4
    endloop
  endfacet
  facet normal -0.809004 -0.587803 0
    outer loop
      vertex -19.6929 -15.8528 -4
      vertex -21.1624 -13.8303 4
      vertex -21.1624 -13.8303 -4
    endloop
  endfacet
  facet normal -0.809004 -0.587803 0
    outer loop
      vertex -21.1624 -13.8303 4
      vertex -19.6929 -15.8528 -4
      vertex -19.6929 -15.8528 4
    endloop
  endfacet
  facet normal 0.587787 -0.809016 0
    outer loop
      vertex -19.6929 -15.8528 -4
      vertex -19.3305 -15.5895 4
      vertex -19.6929 -15.8528 4
    endloop
  endfacet
  facet normal 0.587787 -0.809016 0
    outer loop
      vertex -19.3305 -15.5895 4
      vertex -19.6929 -15.8528 -4
      vertex -19.3305 -15.5895 -4
    endloop
  endfacet
  facet normal -0.587787 0.809016 0
    outer loop
      vertex -20.8 -13.567 -4
      vertex -21.1624 -13.8303 4
      vertex -20.8 -13.567 4
    endloop
  endfacet
  facet normal -0.587787 0.809016 0
    outer loop
      vertex -21.1624 -13.8303 4
      vertex -20.8 -13.567 -4
      vertex -21.1624 -13.8303 -4
    endloop
  endfacet
  facet normal -0.587803 -0.809004 0
    outer loop
      vertex -15.8528 -19.6929 -4
      vertex -13.8303 -21.1624 4
      vertex -15.8528 -19.6929 4
    endloop
  endfacet
  facet normal -0.587803 -0.809004 -0
    outer loop
      vertex -13.8303 -21.1624 4
      vertex -15.8528 -19.6929 -4
      vertex -13.8303 -21.1624 -4
    endloop
  endfacet
  facet normal 0.809016 -0.587787 0
    outer loop
      vertex -13.8303 -21.1624 4
      vertex -13.567 -20.8 -4
      vertex -13.567 -20.8 4
    endloop
  endfacet
  facet normal 0.809016 -0.587787 0
    outer loop
      vertex -13.567 -20.8 -4
      vertex -13.8303 -21.1624 4
      vertex -13.8303 -21.1624 -4
    endloop
  endfacet
  facet normal -0.809016 0.587787 0
    outer loop
      vertex -15.8528 -19.6929 -4
      vertex -15.5895 -19.3305 4
      vertex -15.5895 -19.3305 -4
    endloop
  endfacet
  facet normal -0.809016 0.587787 0
    outer loop
      vertex -15.5895 -19.3305 4
      vertex -15.8528 -19.6929 -4
      vertex -15.8528 -19.6929 4
    endloop
  endfacet
  facet normal -0.309002 -0.951061 0
    outer loop
      vertex -8.9915 -23.6279 -4
      vertex -6.61386 -24.4004 4
      vertex -8.9915 -23.6279 4
    endloop
  endfacet
  facet normal -0.309002 -0.951061 -0
    outer loop
      vertex -6.61386 -24.4004 4
      vertex -8.9915 -23.6279 -4
      vertex -6.61386 -24.4004 -4
    endloop
  endfacet
  facet normal 0.951041 -0.309066 0
    outer loop
      vertex -6.61386 -24.4004 4
      vertex -6.47542 -23.9744 -4
      vertex -6.47542 -23.9744 4
    endloop
  endfacet
  facet normal 0.951041 -0.309066 0
    outer loop
      vertex -6.47542 -23.9744 -4
      vertex -6.61386 -24.4004 4
      vertex -6.61386 -24.4004 -4
    endloop
  endfacet
  facet normal -0.951047 0.309046 0
    outer loop
      vertex -8.9915 -23.6279 -4
      vertex -8.85307 -23.2019 4
      vertex -8.85307 -23.2019 -4
    endloop
  endfacet
  facet normal -0.951047 0.309046 0
    outer loop
      vertex -8.85307 -23.2019 4
      vertex -8.9915 -23.6279 -4
      vertex -8.9915 -23.6279 4
    endloop
  endfacet
  facet normal 0 -1 0
    outer loop
      vertex -1.25 -25.25 -4
      vertex 1.25 -25.25 4
      vertex -1.25 -25.25 4
    endloop
  endfacet
  facet normal 0 -1 -0
    outer loop
      vertex 1.25 -25.25 4
      vertex -1.25 -25.25 -4
      vertex 1.25 -25.25 -4
    endloop
  endfacet
  facet normal -1 0 0
    outer loop
      vertex -1.25 -25.25 -4
      vertex -1.25 -24.802 4
      vertex -1.25 -24.802 -4
    endloop
  endfacet
  facet normal -1 -0 0
    outer loop
      vertex -1.25 -24.802 4
      vertex -1.25 -25.25 -4
      vertex -1.25 -25.25 4
    endloop
  endfacet
  facet normal 1 -0 0
    outer loop
      vertex 1.25 -25.25 4
      vertex 1.25 -24.802 -4
      vertex 1.25 -24.802 4
    endloop
  endfacet
  facet normal 1 0 0
    outer loop
      vertex 1.25 -24.802 -4
      vertex 1.25 -25.25 4
      vertex 1.25 -25.25 -4
    endloop
  endfacet
  facet normal 0.309002 -0.951061 0
    outer loop
      vertex 6.61386 -24.4004 -4
      vertex 8.9915 -23.6279 4
      vertex 6.61386 -24.4004 4
    endloop
  endfacet
  facet normal 0.309002 -0.951061 0
    outer loop
      vertex 8.9915 -23.6279 4
      vertex 6.61386 -24.4004 -4
      vertex 8.9915 -23.6279 -4
    endloop
  endfacet
  facet normal 0.951047 0.309046 0
    outer loop
      vertex 8.9915 -23.6279 4
      vertex 8.85307 -23.2019 -4
      vertex 8.85307 -23.2019 4
    endloop
  endfacet
  facet normal 0.951047 0.309046 0
    outer loop
      vertex 8.85307 -23.2019 -4
      vertex 8.9915 -23.6279 4
      vertex 8.9915 -23.6279 -4
    endloop
  endfacet
  facet normal -0.951041 -0.309066 0
    outer loop
      vertex 6.61386 -24.4004 -4
      vertex 6.47542 -23.9744 4
      vertex 6.47542 -23.9744 -4
    endloop
  endfacet
  facet normal -0.951041 -0.309066 0
    outer loop
      vertex 6.47542 -23.9744 4
      vertex 6.61386 -24.4004 -4
      vertex 6.61386 -24.4004 4
    endloop
  endfacet
  facet normal 0.587803 -0.809004 0
    outer loop
      vertex 13.8303 -21.1624 -4
      vertex 15.8528 -19.6929 4
      vertex 13.8303 -21.1624 4
    endloop
  endfacet
  facet normal 0.587803 -0.809004 0
    outer loop
      vertex 15.8528 -19.6929 4
      vertex 13.8303 -21.1624 -4
      vertex 15.8528 -19.6929 -4
    endloop
  endfacet
  facet normal 0.809016 0.587787 0
    outer loop
      vertex 15.8528 -19.6929 4
      vertex 15.5895 -19.3305 -4
      vertex 15.5895 -19.3305 4
    endloop
  endfacet
  facet normal 0.809016 0.587787 0
    outer loop
      vertex 15.5895 -19.3305 -4
      vertex 15.8528 -19.6929 4
      vertex 15.8528 -19.6929 -4
    endloop
  endfacet
  facet normal -0.809016 -0.587787 0
    outer loop
      vertex 13.8303 -21.1624 -4
      vertex 13.567 -20.8 4
      vertex 13.567 -20.8 -4
    endloop
  endfacet
  facet normal -0.809016 -0.587787 0
    outer loop
      vertex 13.567 -20.8 4
      vertex 13.8303 -21.1624 -4
      vertex 13.8303 -21.1624 4
    endloop
  endfacet
  facet normal 0.809004 -0.587803 0
    outer loop
      vertex 19.6929 -15.8528 4
      vertex 21.1624 -13.8303 -4
      vertex 21.1624 -13.8303 4
    endloop
  endfacet
  facet normal 0.809004 -0.587803 0
    outer loop
      vertex 21.1624 -13.8303 -4
      vertex 19.6929 -15.8528 4
      vertex 19.6929 -15.8528 -4
    endloop
  endfacet
  facet normal 0.587787 0.809016 -0
    outer loop
      vertex 21.1624 -13.8303 -4
      vertex 20.8 -13.567 4
      vertex 21.1624 -13.8303 4
    endloop
  endfacet
  facet normal 0.587787 0.809016 0
    outer loop
      vertex 20.8 -13.567 4
      vertex 21.1624 -13.8303 -4
      vertex 20.8 -13.567 -4
    endloop
  endfacet
  facet normal -0.587787 -0.809016 0
    outer loop
      vertex 19.3305 -15.5895 -4
      vertex 19.6929 -15.8528 4
      vertex 19.3305 -15.5895 4
    endloop
  endfacet
  facet normal -0.587787 -0.809016 -0
    outer loop
      vertex 19.6929 -15.8528 4
      vertex 19.3305 -15.5895 -4
      vertex 19.6929 -15.8528 -4
    endloop
  endfacet
  facet normal 0.951061 -0.309002 0
    outer loop
      vertex 23.6279 -8.9915 4
      vertex 24.4004 -6.61386 -4
      vertex 24.4004 -6.61386 4
    endloop
  endfacet
  facet normal 0.951061 -0.309002 0
    outer loop
      vertex 24.4004 -6.61386 -4
      vertex 23.6279 -8.9915 4
      vertex 23.6279 -8.9915 -4
    endloop
  endfacet
  facet normal 0.309066 0.951041 -0
    outer loop
      vertex 24.4004 -6.61386 -4
      vertex 23.9744 -6.47542 4
      vertex 24.4004 -6.61386 4
    endloop
  endfacet
  facet normal 0.309066 0.951041 0
    outer loop
      vertex 23.9744 -6.47542 4
      vertex 24.4004 -6.61386 -4
      vertex 23.9744 -6.47542 -4
    endloop
  endfacet
  facet normal -0.309046 -0.951047 0
    outer loop
      vertex 23.2019 -8.85307 -4
      vertex 23.6279 -8.9915 4
      vertex 23.2019 -8.85307 4
    endloop
  endfacet
  facet normal -0.309046 -0.951047 -0
    outer loop
      vertex 23.6279 -8.9915 4
      vertex 23.2019 -8.85307 -4
      vertex 23.6279 -8.9915 -4
    endloop
  endfacet
  facet normal 0.987689 0.15643 0
    outer loop
      vertex 24.802 1.25 4
      vertex 23.9744 6.47542 -4
      vertex 23.9744 6.47542 4
    endloop
  endfacet
  facet normal 0.987689 0.15643 0
    outer loop
      vertex 23.9744 6.47542 -4
      vertex 24.802 1.25 4
      vertex 24.802 1.25 -4
    endloop
  endfacet
  facet normal -0.453995 -0.891004 0
    outer loop
      vertex -13.567 -20.8 -4
      vertex -8.85307 -23.2019 4
      vertex -13.567 -20.8 4
    endloop
  endfacet
  facet normal -0.453995 -0.891004 -0
    outer loop
      vertex -8.85307 -23.2019 4
      vertex -13.567 -20.8 -4
      vertex -8.85307 -23.2019 -4
    endloop
  endfacet
  facet normal -0.707107 0.707107 0
    outer loop
      vertex -19.3305 15.5895 -4
      vertex -15.5895 19.3305 4
      vertex -15.5895 19.3305 -4
    endloop
  endfacet
  facet normal -0.707107 0.707107 0
    outer loop
      vertex -15.5895 19.3305 4
      vertex -19.3305 15.5895 -4
      vertex -19.3305 15.5895 4
    endloop
  endfacet
  facet normal 0.891004 0.453995 0
    outer loop
      vertex 23.2019 8.85307 4
      vertex 20.8 13.567 -4
      vertex 20.8 13.567 4
    endloop
  endfacet
  facet normal 0.891004 0.453995 0
    outer loop
      vertex 20.8 13.567 -4
      vertex 23.2019 8.85307 4
      vertex 23.2019 8.85307 -4
    endloop
  endfacet
  facet normal 0.707107 -0.707107 0
    outer loop
      vertex 15.5895 -19.3305 4
      vertex 19.3305 -15.5895 -4
      vertex 19.3305 -15.5895 4
    endloop
  endfacet
  facet normal 0.707107 -0.707107 0
    outer loop
      vertex 19.3305 -15.5895 -4
      vertex 15.5895 -19.3305 4
      vertex 15.5895 -19.3305 -4
    endloop
  endfacet
  facet normal 0.15643 -0.987689 0
    outer loop
      vertex 1.25 -24.802 -4
      vertex 6.47542 -23.9744 4
      vertex 1.25 -24.802 4
    endloop
  endfacet
  facet normal 0.15643 -0.987689 0
    outer loop
      vertex 6.47542 -23.9744 4
      vertex 1.25 -24.802 -4
      vertex 6.47542 -23.9744 -4
    endloop
  endfacet
  facet normal 0.707107 0.707107 0
    outer loop
      vertex 19.3305 15.5895 4
      vertex 15.5895 19.3305 -4
      vertex 15.5895 19.3305 4
    endloop
  endfacet
  facet normal 0.707107 0.707107 0
    outer loop
      vertex 15.5895 19.3305 -4
      vertex 19.3305 15.5895 4
      vertex 19.3305 15.5895 -4
    endloop
  endfacet
  facet normal -0.987689 -0.15643 0
    outer loop
      vertex -23.9744 -6.47542 -4
      vertex -24.802 -1.25 4
      vertex -24.802 -1.25 -4
    endloop
  endfacet
  facet normal -0.987689 -0.15643 0
    outer loop
      vertex -24.802 -1.25 4
      vertex -23.9744 -6.47542 -4
      vertex -23.9744 -6.47542 4
    endloop
  endfacet
  facet normal -0.707107 -0.707107 0
    outer loop
      vertex -15.5895 -19.3305 -4
      vertex -19.3305 -15.5895 4
      vertex -19.3305 -15.5895 -4
    endloop
  endfacet
  facet normal -0.707107 -0.707107 0
    outer loop
      vertex -19.3305 -15.5895 4
      vertex -15.5895 -19.3305 -4
      vertex -15.5895 -19.3305 4
    endloop
  endfacet
  facet normal 0.453995 -0.891004 0
    outer loop
      vertex 8.85307 -23.2019 -4
      vertex 13.567 -20.8 4
      vertex 8.85307 -23.2019 4
    endloop
  endfacet
  facet normal 0.453995 -0.891004 0
    outer loop
      vertex 13.567 -20.8 4
      vertex 8.85307 -23.2019 -4
      vertex 13.567 -20.8 -4
    endloop
  endfacet
  facet normal 0.453995 0.891004 -0
    outer loop
      vertex 13.567 20.8 -4
      vertex 8.85307 23.2019 4
      vertex 13.567 20.8 4
    endloop
  endfacet
  facet normal 0.453995 0.891004 0
    outer loop
      vertex 8.85307 23.2019 4
      vertex 13.567 20.8 -4
      vertex 8.85307 23.2019 -4
    endloop
  endfacet
  facet normal -0.15643 0.987689 0
    outer loop
      vertex -1.25 24.802 -4
      vertex -6.47542 23.9744 4
      vertex -1.25 24.802 4
    endloop
  endfacet
  facet normal -0.15643 0.987689 0
    outer loop
      vertex -6.47542 23.9744 4
      vertex -1.25 24.802 -4
      vertex -6.47542 23.9744 -4
    endloop
  endfacet
  facet normal 0.15643 0.987689 -0
    outer loop
      vertex 6.47542 23.9744 -4
      vertex 1.25 24.802 4
      vertex 6.47542 23.9744 4
    endloop
  endfacet
  facet normal 0.15643 0.987689 0
    outer loop
      vertex 1.25 24.802 4
      vertex 6.47542 23.9744 -4
      vertex 1.25 24.802 -4
    endloop
  endfacet
  facet normal -0.15643 -0.987689 0
    outer loop
      vertex -6.47542 -23.9744 -4
      vertex -1.25 -24.802 4
      vertex -6.47542 -23.9744 4
    endloop
  endfacet
  facet normal -0.15643 -0.987689 -0
    outer loop
      vertex -1.25 -24.802 4
      vertex -6.47542 -23.9744 -4
      vertex -1.25 -24.802 -4
    endloop
  endfacet
  facet normal -0.453995 0.891004 0
    outer loop
      vertex -8.85307 23.2019 -4
      vertex -13.567 20.8 4
      vertex -8.85307 23.2019 4
    endloop
  endfacet
  facet normal -0.453995 0.891004 0
    outer loop
      vertex -13.567 20.8 4
      vertex -8.85307 23.2019 -4
      vertex -13.567 20.8 -4
    endloop
  endfacet
  facet normal -0.891004 -0.453995 0
    outer loop
      vertex -20.8 -13.567 -4
      vertex -23.2019 -8.85307 4
      vertex -23.2019 -8.85307 -4
    endloop
  endfacet
  facet normal -0.891004 -0.453995 0
    outer loop
      vertex -23.2019 -8.85307 4
      vertex -20.8 -13.567 -4
      vertex -20.8 -13.567 4
    endloop
  endfacet
  facet normal -0.987689 0.15643 0
    outer loop
      vertex -24.802 1.25 -4
      vertex -23.9744 6.47542 4
      vertex -23.9744 6.47542 -4
    endloop
  endfacet
  facet normal -0.987689 0.15643 0
    outer loop
      vertex -23.9744 6.47542 4
      vertex -24.802 1.25 -4
      vertex -24.802 1.25 4
    endloop
  endfacet
  facet normal -0.891004 0.453995 0
    outer loop
      vertex -23.2019 8.85307 -4
      vertex -20.8 13.567 4
      vertex -20.8 13.567 -4
    endloop
  endfacet
  facet normal -0.891004 0.453995 0
    outer loop
      vertex -20.8 13.567 4
      vertex -23.2019 8.85307 -4
      vertex -23.2019 8.85307 4
    endloop
  endfacet
  facet normal 0.891004 -0.453995 0
    outer loop
      vertex 20.8 -13.567 4
      vertex 23.2019 -8.85307 -4
      vertex 23.2019 -8.85307 4
    endloop
  endfacet
  facet normal 0.891004 -0.453995 0
    outer loop
      vertex 23.2019 -8.85307 -4
      vertex 20.8 -13.567 4
      vertex 20.8 -13.567 -4
    endloop
  endfacet
  facet normal 0.987689 -0.15643 0
    outer loop
      vertex 23.9744 -6.47542 4
      vertex 24.802 -1.25 -4
      vertex 24.802 -1.25 4
    endloop
  endfacet
  facet normal 0.987689 -0.15643 0
    outer loop
      vertex 24.802 -1.25 -4
      vertex 23.9744 -6.47542 4
      vertex 23.9744 -6.47542 -4
    endloop
  endfacet
  facet normal 0.427563 0.903986 -0
    outer loop
      vertex -1.53073 -3.69552 -4
      vertex -1.88559 -3.52768 4
      vertex -1.53073 -3.69552 4
    endloop
  endfacet
  facet normal 0.427563 0.903986 0
    outer loop
      vertex -1.88559 -3.52768 4
      vertex -1.53073 -3.69552 -4
      vertex -1.88559 -3.52768 -4
    endloop
  endfacet
  facet normal -0.989176 -0.146736 0
    outer loop
      vertex 3.98074 0.392068 -4
      vertex 3.92314 0.780361 4
      vertex 3.92314 0.780361 -4
    endloop
  endfacet
  facet normal -0.989176 -0.146736 0
    outer loop
      vertex 3.92314 0.780361 4
      vertex 3.98074 0.392068 -4
      vertex 3.98074 0.392068 4
    endloop
  endfacet
  facet normal -0.998796 -0.049065 0
    outer loop
      vertex 4 0 -4
      vertex 3.98074 0.392068 4
      vertex 3.98074 0.392068 -4
    endloop
  endfacet
  facet normal -0.998796 -0.049065 0
    outer loop
      vertex 3.98074 0.392068 4
      vertex 4 0 -4
      vertex 4 0 4
    endloop
  endfacet
  facet normal -0.970031 -0.24298 0
    outer loop
      vertex 3.92314 0.780361 -4
      vertex 3.82776 1.16114 4
      vertex 3.82776 1.16114 -4
    endloop
  endfacet
  facet normal -0.970031 -0.24298 0
    outer loop
      vertex 3.82776 1.16114 4
      vertex 3.92314 0.780361 -4
      vertex 3.92314 0.780361 4
    endloop
  endfacet
  facet normal -0.427563 0.903986 0
    outer loop
      vertex 1.88559 -3.52768 -4
      vertex 1.53073 -3.69552 4
      vertex 1.88559 -3.52768 4
    endloop
  endfacet
  facet normal -0.427563 0.903986 0
    outer loop
      vertex 1.53073 -3.69552 4
      vertex 1.88559 -3.52768 -4
      vertex 1.53073 -3.69552 -4
    endloop
  endfacet
  facet normal 0.671545 -0.740964 0
    outer loop
      vertex -2.82843 2.82843 -4
      vertex -2.53757 3.09204 4
      vertex -2.82843 2.82843 4
    endloop
  endfacet
  facet normal 0.671545 -0.740964 0
    outer loop
      vertex -2.53757 3.09204 4
      vertex -2.82843 2.82843 -4
      vertex -2.53757 3.09204 -4
    endloop
  endfacet
  facet normal 0.970031 0.24298 0
    outer loop
      vertex -3.82776 -1.16114 4
      vertex -3.92314 -0.780361 -4
      vertex -3.92314 -0.780361 4
    endloop
  endfacet
  facet normal 0.970031 0.24298 0
    outer loop
      vertex -3.92314 -0.780361 -4
      vertex -3.82776 -1.16114 4
      vertex -3.82776 -1.16114 -4
    endloop
  endfacet
  facet normal -0.427563 -0.903986 0
    outer loop
      vertex 1.53073 3.69552 -4
      vertex 1.88559 3.52768 4
      vertex 1.53073 3.69552 4
    endloop
  endfacet
  facet normal -0.427563 -0.903986 -0
    outer loop
      vertex 1.88559 3.52768 4
      vertex 1.53073 3.69552 -4
      vertex 1.88559 3.52768 -4
    endloop
  endfacet
  facet normal 0.989176 -0.146736 0
    outer loop
      vertex -3.98074 0.392068 4
      vertex -3.92314 0.780361 -4
      vertex -3.92314 0.780361 4
    endloop
  endfacet
  facet normal 0.989176 -0.146736 0
    outer loop
      vertex -3.92314 0.780361 -4
      vertex -3.98074 0.392068 4
      vertex -3.98074 0.392068 -4
    endloop
  endfacet
  facet normal 0.146736 0.989176 -0
    outer loop
      vertex -0.392068 -3.98074 -4
      vertex -0.780361 -3.92314 4
      vertex -0.392068 -3.98074 4
    endloop
  endfacet
  facet normal 0.146736 0.989176 0
    outer loop
      vertex -0.780361 -3.92314 4
      vertex -0.392068 -3.98074 -4
      vertex -0.780361 -3.92314 -4
    endloop
  endfacet
  facet normal -0.24298 -0.970031 0
    outer loop
      vertex 0.780361 3.92314 -4
      vertex 1.16114 3.82776 4
      vertex 0.780361 3.92314 4
    endloop
  endfacet
  facet normal -0.24298 -0.970031 -0
    outer loop
      vertex 1.16114 3.82776 4
      vertex 0.780361 3.92314 -4
      vertex 1.16114 3.82776 -4
    endloop
  endfacet
  facet normal 0.740964 -0.671545 0
    outer loop
      vertex -3.09204 2.53757 4
      vertex -2.82843 2.82843 -4
      vertex -2.82843 2.82843 4
    endloop
  endfacet
  facet normal 0.740964 -0.671545 0
    outer loop
      vertex -2.82843 2.82843 -4
      vertex -3.09204 2.53757 4
      vertex -3.09204 2.53757 -4
    endloop
  endfacet
  facet normal -0.514095 0.857733 0
    outer loop
      vertex 2.22228 -3.32588 -4
      vertex 1.88559 -3.52768 4
      vertex 2.22228 -3.32588 4
    endloop
  endfacet
  facet normal -0.514095 0.857733 0
    outer loop
      vertex 1.88559 -3.52768 4
      vertex 2.22228 -3.32588 -4
      vertex 1.88559 -3.52768 -4
    endloop
  endfacet
  facet normal 0.24298 0.970031 -0
    outer loop
      vertex -0.780361 -3.92314 -4
      vertex -1.16114 -3.82776 4
      vertex -0.780361 -3.92314 4
    endloop
  endfacet
  facet normal 0.24298 0.970031 0
    outer loop
      vertex -1.16114 -3.82776 4
      vertex -0.780361 -3.92314 -4
      vertex -1.16114 -3.82776 -4
    endloop
  endfacet
  facet normal 0.336887 -0.941545 0
    outer loop
      vertex -1.53073 3.69552 -4
      vertex -1.16114 3.82776 4
      vertex -1.53073 3.69552 4
    endloop
  endfacet
  facet normal 0.336887 -0.941545 0
    outer loop
      vertex -1.16114 3.82776 4
      vertex -1.53073 3.69552 -4
      vertex -1.16114 3.82776 -4
    endloop
  endfacet
  facet normal -0.049065 0.998796 0
    outer loop
      vertex 0.392068 -3.98074 -4
      vertex 0 -4 4
      vertex 0.392068 -3.98074 4
    endloop
  endfacet
  facet normal -0.049065 0.998796 0
    outer loop
      vertex 0 -4 4
      vertex 0.392068 -3.98074 -4
      vertex 0 -4 -4
    endloop
  endfacet
  facet normal -0.146736 0.989176 0
    outer loop
      vertex 0.780361 -3.92314 -4
      vertex 0.392068 -3.98074 4
      vertex 0.780361 -3.92314 4
    endloop
  endfacet
  facet normal -0.146736 0.989176 0
    outer loop
      vertex 0.392068 -3.98074 4
      vertex 0.780361 -3.92314 -4
      vertex 0.392068 -3.98074 -4
    endloop
  endfacet
  facet normal 0.049065 -0.998796 0
    outer loop
      vertex -0.392068 3.98074 -4
      vertex 0 4 4
      vertex -0.392068 3.98074 4
    endloop
  endfacet
  facet normal 0.049065 -0.998796 0
    outer loop
      vertex 0 4 4
      vertex -0.392068 3.98074 -4
      vertex 0 4 -4
    endloop
  endfacet
  facet normal 0.595708 0.803201 -0
    outer loop
      vertex -2.22228 -3.32588 -4
      vertex -2.53757 -3.09204 4
      vertex -2.22228 -3.32588 4
    endloop
  endfacet
  facet normal 0.595708 0.803201 0
    outer loop
      vertex -2.53757 -3.09204 4
      vertex -2.22228 -3.32588 -4
      vertex -2.53757 -3.09204 -4
    endloop
  endfacet
  facet normal 0.903986 0.427563 0
    outer loop
      vertex -3.52768 -1.88559 4
      vertex -3.69552 -1.53073 -4
      vertex -3.69552 -1.53073 4
    endloop
  endfacet
  facet normal 0.903986 0.427563 0
    outer loop
      vertex -3.69552 -1.53073 -4
      vertex -3.52768 -1.88559 4
      vertex -3.52768 -1.88559 -4
    endloop
  endfacet
  facet normal 0.146736 -0.989176 0
    outer loop
      vertex -0.780361 3.92314 -4
      vertex -0.392068 3.98074 4
      vertex -0.780361 3.92314 4
    endloop
  endfacet
  facet normal 0.146736 -0.989176 0
    outer loop
      vertex -0.392068 3.98074 4
      vertex -0.780361 3.92314 -4
      vertex -0.392068 3.98074 -4
    endloop
  endfacet
  facet normal -0.595708 0.803201 0
    outer loop
      vertex 2.53757 -3.09204 -4
      vertex 2.22228 -3.32588 4
      vertex 2.53757 -3.09204 4
    endloop
  endfacet
  facet normal -0.595708 0.803201 0
    outer loop
      vertex 2.22228 -3.32588 4
      vertex 2.53757 -3.09204 -4
      vertex 2.22228 -3.32588 -4
    endloop
  endfacet
  facet normal -0.049065 -0.998796 0
    outer loop
      vertex 0 4 -4
      vertex 0.392068 3.98074 4
      vertex 0 4 4
    endloop
  endfacet
  facet normal -0.049065 -0.998796 -0
    outer loop
      vertex 0.392068 3.98074 4
      vertex 0 4 -4
      vertex 0.392068 3.98074 -4
    endloop
  endfacet
  facet normal -0.514095 -0.857733 0
    outer loop
      vertex 1.88559 3.52768 -4
      vertex 2.22228 3.32588 4
      vertex 1.88559 3.52768 4
    endloop
  endfacet
  facet normal -0.514095 -0.857733 -0
    outer loop
      vertex 2.22228 3.32588 4
      vertex 1.88559 3.52768 -4
      vertex 2.22228 3.32588 -4
    endloop
  endfacet
  facet normal 0.998796 0.049065 0
    outer loop
      vertex -3.98074 -0.392068 4
      vertex -4 0 -4
      vertex -4 0 4
    endloop
  endfacet
  facet normal 0.998796 0.049065 0
    outer loop
      vertex -4 0 -4
      vertex -3.98074 -0.392068 4
      vertex -3.98074 -0.392068 -4
    endloop
  endfacet
  facet normal -0.970031 0.24298 0
    outer loop
      vertex 3.82776 -1.16114 -4
      vertex 3.92314 -0.780361 4
      vertex 3.92314 -0.780361 -4
    endloop
  endfacet
  facet normal -0.970031 0.24298 0
    outer loop
      vertex 3.92314 -0.780361 4
      vertex 3.82776 -1.16114 -4
      vertex 3.82776 -1.16114 4
    endloop
  endfacet
  facet normal -0.740964 -0.671545 0
    outer loop
      vertex 3.09204 2.53757 -4
      vertex 2.82843 2.82843 4
      vertex 2.82843 2.82843 -4
    endloop
  endfacet
  facet normal -0.740964 -0.671545 0
    outer loop
      vertex 2.82843 2.82843 4
      vertex 3.09204 2.53757 -4
      vertex 3.09204 2.53757 4
    endloop
  endfacet
  facet normal -0.595708 -0.803201 0
    outer loop
      vertex 2.22228 3.32588 -4
      vertex 2.53757 3.09204 4
      vertex 2.22228 3.32588 4
    endloop
  endfacet
  facet normal -0.595708 -0.803201 -0
    outer loop
      vertex 2.53757 3.09204 4
      vertex 2.22228 3.32588 -4
      vertex 2.53757 3.09204 -4
    endloop
  endfacet
  facet normal 0.595708 -0.803201 0
    outer loop
      vertex -2.53757 3.09204 -4
      vertex -2.22228 3.32588 4
      vertex -2.53757 3.09204 4
    endloop
  endfacet
  facet normal 0.595708 -0.803201 0
    outer loop
      vertex -2.22228 3.32588 4
      vertex -2.53757 3.09204 -4
      vertex -2.22228 3.32588 -4
    endloop
  endfacet
  facet normal -0.803201 -0.595708 0
    outer loop
      vertex 3.32588 2.22228 -4
      vertex 3.09204 2.53757 4
      vertex 3.09204 2.53757 -4
    endloop
  endfacet
  facet normal -0.803201 -0.595708 0
    outer loop
      vertex 3.09204 2.53757 4
      vertex 3.32588 2.22228 -4
      vertex 3.32588 2.22228 4
    endloop
  endfacet
  facet normal -0.989176 0.146736 0
    outer loop
      vertex 3.92314 -0.780361 -4
      vertex 3.98074 -0.392068 4
      vertex 3.98074 -0.392068 -4
    endloop
  endfacet
  facet normal -0.989176 0.146736 0
    outer loop
      vertex 3.98074 -0.392068 4
      vertex 3.92314 -0.780361 -4
      vertex 3.92314 -0.780361 4
    endloop
  endfacet
  facet normal 0.941545 -0.336887 0
    outer loop
      vertex -3.82776 1.16114 4
      vertex -3.69552 1.53073 -4
      vertex -3.69552 1.53073 4
    endloop
  endfacet
  facet normal 0.941545 -0.336887 0
    outer loop
      vertex -3.69552 1.53073 -4
      vertex -3.82776 1.16114 4
      vertex -3.82776 1.16114 -4
    endloop
  endfacet
  facet normal -0.903986 0.427563 0
    outer loop
      vertex 3.52768 -1.88559 -4
      vertex 3.69552 -1.53073 4
      vertex 3.69552 -1.53073 -4
    endloop
  endfacet
  facet normal -0.903986 0.427563 0
    outer loop
      vertex 3.69552 -1.53073 4
      vertex 3.52768 -1.88559 -4
      vertex 3.52768 -1.88559 4
    endloop
  endfacet
  facet normal -0.336887 -0.941545 0
    outer loop
      vertex 1.16114 3.82776 -4
      vertex 1.53073 3.69552 4
      vertex 1.16114 3.82776 4
    endloop
  endfacet
  facet normal -0.336887 -0.941545 -0
    outer loop
      vertex 1.53073 3.69552 4
      vertex 1.16114 3.82776 -4
      vertex 1.53073 3.69552 -4
    endloop
  endfacet
  facet normal -0.998796 0.049065 0
    outer loop
      vertex 3.98074 -0.392068 -4
      vertex 4 0 4
      vertex 4 0 -4
    endloop
  endfacet
  facet normal -0.998796 0.049065 0
    outer loop
      vertex 4 0 4
      vertex 3.98074 -0.392068 -4
      vertex 3.98074 -0.392068 4
    endloop
  endfacet
  facet normal -0.336887 0.941545 0
    outer loop
      vertex 1.53073 -3.69552 -4
      vertex 1.16114 -3.82776 4
      vertex 1.53073 -3.69552 4
    endloop
  endfacet
  facet normal -0.336887 0.941545 0
    outer loop
      vertex 1.16114 -3.82776 4
      vertex 1.53073 -3.69552 -4
      vertex 1.16114 -3.82776 -4
    endloop
  endfacet
  facet normal -0.941545 -0.336887 0
    outer loop
      vertex 3.82776 1.16114 -4
      vertex 3.69552 1.53073 4
      vertex 3.69552 1.53073 -4
    endloop
  endfacet
  facet normal -0.941545 -0.336887 0
    outer loop
      vertex 3.69552 1.53073 4
      vertex 3.82776 1.16114 -4
      vertex 3.82776 1.16114 4
    endloop
  endfacet
  facet normal -0.803201 0.595708 0
    outer loop
      vertex 3.09204 -2.53757 -4
      vertex 3.32588 -2.22228 4
      vertex 3.32588 -2.22228 -4
    endloop
  endfacet
  facet normal -0.803201 0.595708 0
    outer loop
      vertex 3.32588 -2.22228 4
      vertex 3.09204 -2.53757 -4
      vertex 3.09204 -2.53757 4
    endloop
  endfacet
  facet normal -0.857733 0.514095 0
    outer loop
      vertex 3.32588 -2.22228 -4
      vertex 3.52768 -1.88559 4
      vertex 3.52768 -1.88559 -4
    endloop
  endfacet
  facet normal -0.857733 0.514095 0
    outer loop
      vertex 3.52768 -1.88559 4
      vertex 3.32588 -2.22228 -4
      vertex 3.32588 -2.22228 4
    endloop
  endfacet
  facet normal -0.941545 0.336887 0
    outer loop
      vertex 3.69552 -1.53073 -4
      vertex 3.82776 -1.16114 4
      vertex 3.82776 -1.16114 -4
    endloop
  endfacet
  facet normal -0.941545 0.336887 0
    outer loop
      vertex 3.82776 -1.16114 4
      vertex 3.69552 -1.53073 -4
      vertex 3.69552 -1.53073 4
    endloop
  endfacet
  facet normal 0.903986 -0.427563 0
    outer loop
      vertex -3.69552 1.53073 4
      vertex -3.52768 1.88559 -4
      vertex -3.52768 1.88559 4
    endloop
  endfacet
  facet normal 0.903986 -0.427563 0
    outer loop
      vertex -3.52768 1.88559 -4
      vertex -3.69552 1.53073 4
      vertex -3.69552 1.53073 -4
    endloop
  endfacet
  facet normal 0.24298 -0.970031 0
    outer loop
      vertex -1.16114 3.82776 -4
      vertex -0.780361 3.92314 4
      vertex -1.16114 3.82776 4
    endloop
  endfacet
  facet normal 0.24298 -0.970031 0
    outer loop
      vertex -0.780361 3.92314 4
      vertex -1.16114 3.82776 -4
      vertex -0.780361 3.92314 -4
    endloop
  endfacet
  facet normal -0.903986 -0.427563 0
    outer loop
      vertex 3.69552 1.53073 -4
      vertex 3.52768 1.88559 4
      vertex 3.52768 1.88559 -4
    endloop
  endfacet
  facet normal -0.903986 -0.427563 0
    outer loop
      vertex 3.52768 1.88559 4
      vertex 3.69552 1.53073 -4
      vertex 3.69552 1.53073 4
    endloop
  endfacet
  facet normal -0.146736 -0.989176 0
    outer loop
      vertex 0.392068 3.98074 -4
      vertex 0.780361 3.92314 4
      vertex 0.392068 3.98074 4
    endloop
  endfacet
  facet normal -0.146736 -0.989176 -0
    outer loop
      vertex 0.780361 3.92314 4
      vertex 0.392068 3.98074 -4
      vertex 0.780361 3.92314 -4
    endloop
  endfacet
  facet normal 0.857733 0.514095 0
    outer loop
      vertex -3.32588 -2.22228 4
      vertex -3.52768 -1.88559 -4
      vertex -3.52768 -1.88559 4
    endloop
  endfacet
  facet normal 0.857733 0.514095 0
    outer loop
      vertex -3.52768 -1.88559 -4
      vertex -3.32588 -2.22228 4
      vertex -3.32588 -2.22228 -4
    endloop
  endfacet
  facet normal -0.857733 -0.514095 0
    outer loop
      vertex 3.52768 1.88559 -4
      vertex 3.32588 2.22228 4
      vertex 3.32588 2.22228 -4
    endloop
  endfacet
  facet normal -0.857733 -0.514095 0
    outer loop
      vertex 3.32588 2.22228 4
      vertex 3.52768 1.88559 -4
      vertex 3.52768 1.88559 4
    endloop
  endfacet
  facet normal 0.740964 0.671545 0
    outer loop
      vertex -2.82843 -2.82843 4
      vertex -3.09204 -2.53757 -4
      vertex -3.09204 -2.53757 4
    endloop
  endfacet
  facet normal 0.740964 0.671545 0
    outer loop
      vertex -3.09204 -2.53757 -4
      vertex -2.82843 -2.82843 4
      vertex -2.82843 -2.82843 -4
    endloop
  endfacet
  facet normal -0.24298 0.970031 0
    outer loop
      vertex 1.16114 -3.82776 -4
      vertex 0.780361 -3.92314 4
      vertex 1.16114 -3.82776 4
    endloop
  endfacet
  facet normal -0.24298 0.970031 0
    outer loop
      vertex 0.780361 -3.92314 4
      vertex 1.16114 -3.82776 -4
      vertex 0.780361 -3.92314 -4
    endloop
  endfacet
  facet normal 0.514095 -0.857733 0
    outer loop
      vertex -2.22228 3.32588 -4
      vertex -1.88559 3.52768 4
      vertex -2.22228 3.32588 4
    endloop
  endfacet
  facet normal 0.514095 -0.857733 0
    outer loop
      vertex -1.88559 3.52768 4
      vertex -2.22228 3.32588 -4
      vertex -1.88559 3.52768 -4
    endloop
  endfacet
  facet normal 0.427563 -0.903986 0
    outer loop
      vertex -1.88559 3.52768 -4
      vertex -1.53073 3.69552 4
      vertex -1.88559 3.52768 4
    endloop
  endfacet
  facet normal 0.427563 -0.903986 0
    outer loop
      vertex -1.53073 3.69552 4
      vertex -1.88559 3.52768 -4
      vertex -1.53073 3.69552 -4
    endloop
  endfacet
  facet normal 0.941545 0.336887 0
    outer loop
      vertex -3.69552 -1.53073 4
      vertex -3.82776 -1.16114 -4
      vertex -3.82776 -1.16114 4
    endloop
  endfacet
  facet normal 0.941545 0.336887 0
    outer loop
      vertex -3.82776 -1.16114 -4
      vertex -3.69552 -1.53073 4
      vertex -3.69552 -1.53073 -4
    endloop
  endfacet
  facet normal 0.514095 0.857733 -0
    outer loop
      vertex -1.88559 -3.52768 -4
      vertex -2.22228 -3.32588 4
      vertex -1.88559 -3.52768 4
    endloop
  endfacet
  facet normal 0.514095 0.857733 0
    outer loop
      vertex -2.22228 -3.32588 4
      vertex -1.88559 -3.52768 -4
      vertex -2.22228 -3.32588 -4
    endloop
  endfacet
  facet normal -0.671545 -0.740964 0
    outer loop
      vertex 2.53757 3.09204 -4
      vertex 2.82843 2.82843 4
      vertex 2.53757 3.09204 4
    endloop
  endfacet
  facet normal -0.671545 -0.740964 -0
    outer loop
      vertex 2.82843 2.82843 4
      vertex 2.53757 3.09204 -4
      vertex 2.82843 2.82843 -4
    endloop
  endfacet
  facet normal 0.970031 -0.24298 0
    outer loop
      vertex -3.92314 0.780361 4
      vertex -3.82776 1.16114 -4
      vertex -3.82776 1.16114 4
    endloop
  endfacet
  facet normal 0.970031 -0.24298 0
    outer loop
      vertex -3.82776 1.16114 -4
      vertex -3.92314 0.780361 4
      vertex -3.92314 0.780361 -4
    endloop
  endfacet
  facet normal 0.803201 0.595708 0
    outer loop
      vertex -3.09204 -2.53757 4
      vertex -3.32588 -2.22228 -4
      vertex -3.32588 -2.22228 4
    endloop
  endfacet
  facet normal 0.803201 0.595708 0
    outer loop
      vertex -3.32588 -2.22228 -4
      vertex -3.09204 -2.53757 4
      vertex -3.09204 -2.53757 -4
    endloop
  endfacet
  facet normal 0.989176 0.146736 0
    outer loop
      vertex -3.92314 -0.780361 4
      vertex -3.98074 -0.392068 -4
      vertex -3.98074 -0.392068 4
    endloop
  endfacet
  facet normal 0.989176 0.146736 0
    outer loop
      vertex -3.98074 -0.392068 -4
      vertex -3.92314 -0.780361 4
      vertex -3.92314 -0.780361 -4
    endloop
  endfacet
  facet normal 0.671545 0.740964 -0
    outer loop
      vertex -2.53757 -3.09204 -4
      vertex -2.82843 -2.82843 4
      vertex -2.53757 -3.09204 4
    endloop
  endfacet
  facet normal 0.671545 0.740964 0
    outer loop
      vertex -2.82843 -2.82843 4
      vertex -2.53757 -3.09204 -4
      vertex -2.82843 -2.82843 -4
    endloop
  endfacet
  facet normal 0.803201 -0.595708 0
    outer loop
      vertex -3.32588 2.22228 4
      vertex -3.09204 2.53757 -4
      vertex -3.09204 2.53757 4
    endloop
  endfacet
  facet normal 0.803201 -0.595708 0
    outer loop
      vertex -3.09204 2.53757 -4
      vertex -3.32588 2.22228 4
      vertex -3.32588 2.22228 -4
    endloop
  endfacet
  facet normal 0.857733 -0.514095 0
    outer loop
      vertex -3.52768 1.88559 4
      vertex -3.32588 2.22228 -4
      vertex -3.32588 2.22228 4
    endloop
  endfacet
  facet normal 0.857733 -0.514095 0
    outer loop
      vertex -3.32588 2.22228 -4
      vertex -3.52768 1.88559 4
      vertex -3.52768 1.88559 -4
    endloop
  endfacet
  facet normal 0.049065 0.998796 -0
    outer loop
      vertex 0 -4 -4
      vertex -0.392068 -3.98074 4
      vertex 0 -4 4
    endloop
  endfacet
  facet normal 0.049065 0.998796 0
    outer loop
      vertex -0.392068 -3.98074 4
      vertex 0 -4 -4
      vertex -0.392068 -3.98074 -4
    endloop
  endfacet
  facet normal 0.998796 -0.049065 0
    outer loop
      vertex -4 0 4
      vertex -3.98074 0.392068 -4
      vertex -3.98074 0.392068 4
    endloop
  endfacet
  facet normal 0.998796 -0.049065 0
    outer loop
      vertex -3.98074 0.392068 -4
      vertex -4 0 4
      vertex -4 0 -4
    endloop
  endfacet
  facet normal 0.336887 0.941545 -0
    outer loop
      vertex -1.16114 -3.82776 -4
      vertex -1.53073 -3.69552 4
      vertex -1.16114 -3.82776 4
    endloop
  endfacet
  facet normal 0.336887 0.941545 0
    outer loop
      vertex -1.53073 -3.69552 4
      vertex -1.16114 -3.82776 -4
      vertex -1.53073 -3.69552 -4
    endloop
  endfacet
  facet normal -0.740964 0.671545 0
    outer loop
      vertex 2.82843 -2.82843 -4
      vertex 3.09204 -2.53757 4
      vertex 3.09204 -2.53757 -4
    endloop
  endfacet
  facet normal -0.740964 0.671545 0
    outer loop
      vertex 3.09204 -2.53757 4
      vertex 2.82843 -2.82843 -4
      vertex 2.82843 -2.82843 4
    endloop
  endfacet
  facet normal -0.671545 0.740964 0
    outer loop
      vertex 2.82843 -2.82843 -4
      vertex 2.53757 -3.09204 4
      vertex 2.82843 -2.82843 4
    endloop
  endfacet
  facet normal -0.671545 0.740964 0
    outer loop
      vertex 2.53757 -3.09204 4
      vertex 2.82843 -2.82843 -4
      vertex 2.53757 -3.09204 -4
    endloop
  endfacet
endsolid OpenSCAD_Model
